/* XPM */
static const char *blockdevice_xpm[] = {
/* columns rows colors chars-per-pixel */
"16 16 16 1",
"  c black",
". c gray19",
"X c #004000",
"o c #004040",
"O c #008000",
"+ c #00C000",
"@ c green",
"# c #00C0C0",
"$ c cyan",
"% c #808000",
"& c #C0C000",
"* c yellow",
"= c #C0FFC0",
"- c #C0FFFF",
"; c #FFFFC0",
": c gray100",
/* pixels */
"::::::  ::::::::",
"::::: == :::::::",
":::: ===@ ::::::",
"::: @@=@O    :::",
":: @@@@OO --- ::",
":: ++@OOO$---$ :",
":: +++OO$$$-$o :",
":: O;;;X$$$$oo :",
":: ;;;**##$ooo :",
": **;**%###oo ::",
".*****%% ##o :::",
".&&**%%%    ::::",
".&&&%%% ::::::::",
"  &&%% :::::::::",
"::  % ::::::::::",
":::: :::::::::::"
};
