/* XPM */
static const char *chardevice_xpm[] = {
/* columns rows colors chars-per-pixel */
"16 16 6 1",
"  c black",
". c #C00000",
"X c red",
"o c #808080",
"O c #C3C3C3",
"+ c gray100",
/* pixels */
"++           +++",
"+ OOOOOOOOOOO ++",
"+ OoooooooooO ++",
"+ Oo       +O ++",
"+ Oo +o    +O ++",
"+ Oo o     +O ++",
"+ Oo       +O ++",
"+ Oo       +O ++",
"+ OOOOOOOOOOO ++",
"+ ooooooooooo ++",
"++           +++",
"++ o++++++++++++",
"++o ++++++++++++",
"++ o+. +++++++++",
"+++ .X++++++++++",
"+++++. +++++++++"
};
