/* XPM */
static const char * compressedtar_xpm[] = {
"16 16 81 1",
" 	c None",
".	c #8CBCE7",
"+	c #0000FF",
"@	c #000080",
"#	c #4A7BCC",
"$	c #969696",
"%	c #8F8981",
"&	c #A49F98",
"*	c #928D86",
"=	c #98938C",
"-	c #8C8478",
";	c #6B6355",
">	c #6C6458",
",	c #61594B",
"'	c #655F55",
")	c #6F6A61",
"!	c #757169",
"~	c #87837B",
"{	c #96928C",
"]	c #9A9690",
"^	c #C6C1BA",
"/	c #C3BFB7",
"(	c #BDB9B1",
"_	c #BDB8B1",
":	c #BBB6AF",
"<	c #B9B4AD",
"[	c #B6B2AC",
"}	c #B3AFA9",
"|	c #B5B0A9",
"1	c #A29D96",
"2	c #98948E",
"3	c #C9C5BE",
"4	c #D6D2CA",
"5	c #D5D0C9",
"6	c #D5D1C9",
"7	c #D3CFC7",
"8	c #D1CCC5",
"9	c #CDC8C1",
"0	c #C9C5BD",
"a	c #C5C0B9",
"b	c #C1BCB5",
"c	c #A5A099",
"d	c #C8C8C8",
"e	c #D2CDC6",
"f	c #D0CCC4",
"g	c #CECAC2",
"h	c #CCC8C0",
"i	c #C6C2BA",
"j	c #C3BEB7",
"k	c #C0BBB4",
"l	c #B7B2AB",
"m	c #9D9993",
"n	c #BFBBB3",
"o	c #BFBAB3",
"p	c #BAB5AE",
"q	c #B8B3AA",
"r	c #B5AFA7",
"s	c #BCB7B0",
"t	c #A7A29B",
"u	c #A19D97",
"v	c #C1BDB5",
"w	c #BDB7AF",
"x	c #B9B3AB",
"y	c #B7B2A9",
"z	c #B4AFA6",
"A	c #A8A39C",
"B	c #A29E98",
"C	c #B3AEA7",
"D	c #B1ACA5",
"E	c #B0ABA4",
"F	c #AFAAA3",
"G	c #ADA8A1",
"H	c #ACA7A0",
"I	c #AAA59E",
"J	c #A09B94",
"K	c #A39F99",
"L	c #948F88",
"M	c #8B867F",
"N	c #918C85",
"O	c #8E8880",
"P	c #88837C",
"                ",
"     .+@#@+.    ",
"       +@@      ",
" .+@@@@@@@@@@+  ",
".++.   +@@      ",
"+@. $@@@@@@@%&* ",
"+@=-;;>,')!~{]= ",
"+@^/((_:<[}}|12 ",
"+@34567890ab_c] ",
"+@defgh0ijk_l&m ",
"+@dnbko_:pqrstu ",
"+@dvko_wpxyzrAB ",
"+@dCDEEFGHIIHJK ",
"+@dL*MNN%O%NPP  ",
"#@#.@@@@@@@@@@.d",
".#@@@@@@@@@@@@+ "};
