/* XPM */
static const char * compressedfile_xpm[] = {
"16 16 13 1",
"  s None c None",
". c #000000",
"# c #4a7bcc",
"a c #646464",
"b c #c8c8c8",
"c c #8cbce7",
"d c #0000ff",
"e c #545454",
"f c #323232",
"g c #ffffff",
"h c #969696",
"i c #000080",
"j c #555555",
"                ",
"     cdi#idc    ",
"       dii      ",
" cdiiiiiiiiiid  ",
"cddc   dii      ",
"dic hiiiiiiihfh ",
"di .gggggggg.hf ",
"dib.gjjjjjjge.hf",
"dib.gggggggggg.a",
"dib.gjjjjjjjjg.a",
"dib.gggggggggg.f",
"dib.gjjjjjjjjg.f",
"dib.gggggggggg.f",
"dib............f",
"#i#ciiiiiiiiiicb",
"c#iiiiiiiiiiiid "};
