/* XPM */
static const char * copy[] = {
"22 22 5 1",
"  s None c None",
". c #000000",
"# c #808080",
"a c #ffffff",
"b c #000080",
"                      ",
"                      ",
"  bbbbbbbb            ",
" #baaaaabbb           ",
" #baaaaabbb           ",
" #baa..abba.          ",
" #baaaaabbbbbbbbb     ",
" #baa...##baaaaab.    ",
" #baaaaa..baaaaaba..  ",
" #baa.....ba...aba..  ",
" #baaaaa##baaaaabbbbb ",
" #baa.....ba......aab ",
" #baaaaa##baaaaaaaaab ",
" #bbbbbbbbba......aab ",
" #bbbbbbbbbaaaaaaaaab ",
" #########ba......aab ",
"        ##baaaaaaaaab ",
"        ##bbbbbbbbbbb ",
"        ##########    ",
"        ##########    ",
"                      ",
"                      "};
