/* XPM */
static const char * cut[] = {
"22 22 5 1",
"  s None c None",
". c #808080",
"# c #0098b1",
"a c #000080",
"b c #0000cc",
"                      ",
"             ba       ",
"      ba     ba       ",
"      ba     ba       ",
"      ba.    ba       ",
"      #a.    b#       ",
"       aa   bb#       ",
"       .aa  a#        ",
"       .ba  a.        ",
"        baaaa         ",
"        .ba..         ",
"        .ba..         ",
"         aaaa         ",
"        ba #aaa       ",
"       bba  aa a      ",
"      aaaa  a  .a     ",
"     b  .a  a   a     ",
"     b   a  a.  a     ",
"     b.  a   aaa      ",
"     aaaa    aaa      ",
"      aaa             ",
"                      "};
