/* XPM */
static const char * fulltree_xpm[] = {
"16 16 10 1",
"  s None c None",
". c #646464",
"# c #96b896",
"a c #a0a0a0",
"b c #c8c8c8",
"c c #323232",
"d c #00db00",
"e c #99d599",
"f c #969696",
"g c #00bf00",
"  e#ggggg.ge#e  ",
" eg..g.g.gge.ge ",
"eggeg..e.g..egge",
"g.ge#.ge.e.#eg.g",
"gd.#g.eg...g#.gg",
" gb.e.geee.e.bg ",
"###.ee.ee.ee.###",
"g ..ee.ee.ee.. g",
" .g#...ee...#g. ",
"eg eee..c.eee ge",
"    f b..b f    ",
"       .c       ",
"       .c       ",
"     ba.cab     ",
"  bbbaa.caabbb  ",
"                "};

