/* XPM */
static const char * ghostfile_xpm[] = {
"16 16 13 1",
"  s None c None",
". c #000000",
"# c #646464",
"a c #f8f8f8",
"b c #b4b4b4",
"c c #a3a3a3",
"d c #f3f3f3",
"e c #ffffff",
"f c #3b3b3b",
"g c #969696",
"h c #bebebe",
"i c #b0b0b0",
"j c #d8d8d8",
"                ",
"  . . . .       ",
"   heheie.g     ",
"  .e.e.djgeg    ",
"   hjjjje#g.    ",
"  .e.e.ajjje.   ",
"   bjjjjjjjg    ",
"  .e.e.d.e.e.   ",
"   bjjjjjjjg    ",
"  .e.e.afe.e.   ",
"   bjjjjjjjg    ",
"  .e.e.afe.e.   ",
"   becececec    ",
"  . . . . . .   ",
"                ",
"                "};
