/* XPM */
static const char * ghostopenfolder_xpm[] = {
"16 16 6 1",
"  s None c None",
". c #000000",
"# c #ffff00",
"a c #808080",
"b c #c0c0c0",
"c c #ffffff",
"                ",
"   a a a        ",
"   c#c#ca       ",
" ac#b#b#c#a#a#a ",
" #cb#b#bcc#c#ca ",
" ac#b#b#b#b#b# .",
"a#a a a a a a#a ",
"##c#ccccccc#ab .",
"ac#b#b#b#b##  a ",
"  c#b#b#b#b#b. .",
" a#b#b#b#b#b# a ",
"   cb#b#b#b##a .",
"  a a a a a a a ",
"   . . . . . . .",
"                ",
"                "};
