/* XPM */
static const char * ghosttarball_xpm[] = {
"16 16 104 2",
"  	c None",
". 	c #D9D9D9",
"+ 	c #B7B6B5",
"@ 	c #ADADAB",
"# 	c #C1BDB6",
"$ 	c #C8C9CA",
"% 	c #E7E7E6",
"& 	c #C5C2BC",
"* 	c #C3BFB9",
"= 	c #BFBBB5",
"- 	c #C5C1BA",
"; 	c #A09D97",
"> 	c #9A9895",
", 	c #BDBBB7",
"' 	c #C9C7C3",
") 	c #C7C5C1",
"! 	c #76726D",
"~ 	c #8E8983",
"{ 	c #C1BDB7",
"] 	c #C3C0BA",
"^ 	c #989590",
"/ 	c #A5A098",
"( 	c #938C81",
"_ 	c #7B7367",
": 	c #6A6255",
"< 	c #534B3F",
"[ 	c #5E574C",
"} 	c #736D64",
"| 	c #85817A",
"1 	c #9B9791",
"2 	c #AEAAA5",
"3 	c #ACA9A3",
"4 	c #9F9D99",
"5 	c #99968F",
"6 	c #B5B0A7",
"7 	c #AEA9A0",
"8 	c #A9A49D",
"9 	c #A8A49D",
"0 	c #B3AFA7",
"a 	c #908C86",
"b 	c #AAA69F",
"c 	c #CDC8C0",
"d 	c #D7D2C9",
"e 	c #D5D0C7",
"f 	c #D4D0C7",
"g 	c #D2CDC4",
"h 	c #CDC9C1",
"i 	c #C8C4BC",
"j 	c #C3BFB7",
"k 	c #BFBBB2",
"l 	c #BEB8AF",
"m 	c #ADA9A1",
"n 	c #9A958E",
"o 	c #CBC6BE",
"p 	c #CFCAC2",
"q 	c #C9C5BD",
"r 	c #C2BEB6",
"s 	c #BCB7AF",
"t 	c #ACA79F",
"u 	c #A6A39E",
"v 	c #C8C4BB",
"w 	c #CBC7BF",
"x 	c #C5C1B9",
"y 	c #C0BCB4",
"z 	c #BCB8B0",
"A 	c #B9B5AC",
"B 	c #B9B3AA",
"C 	c #ABA79F",
"D 	c #C4C0B8",
"E 	c #BBB6AE",
"F 	c #B7B1A8",
"G 	c #A09C96",
"H 	c #A7A49F",
"I 	c #BFBBB3",
"J 	c #C1BDB5",
"K 	c #BEBAB2",
"L 	c #B9B3AB",
"M 	c #B6B0A8",
"N 	c #B4AFA6",
"O 	c #ABA69E",
"P 	c #A29E98",
"Q 	c #C1BCB4",
"R 	c #BEB9B0",
"S 	c #BBB6AC",
"T 	c #B6B1A7",
"U 	c #ADA8A0",
"V 	c #9F9C96",
"W 	c #B2AEA8",
"X 	c #B7B3AB",
"Y 	c #B5B1A9",
"Z 	c #B4B0A8",
"` 	c #B2AEA6",
" .	c #AFABA3",
"..	c #AEAAA2",
"+.	c #B0ACA3",
"@.	c #A7A39B",
"#.	c #9E9A93",
"$.	c #86827A",
"%.	c #949089",
"&.	c #928E88",
"*.	c #938D85",
"=.	c #938E86",
"-.	c #938E88",
";.	c #8A8781",
"                                ",
"          .   +                 ",
"        @   #   $ %             ",
"      & * = - ; > , ' )         ",
"    ,   *   !   ~   {   ]       ",
"  ^ / ( _ : < [ } | 1 2 3 4     ",
"  5   6   7   8   9   0   a     ",
"  b c d e f g h i j k l m n     ",
"    o   p   q   r   s   t       ",
"  u v p w q x j y z A B C 1     ",
"  u   q   D   y   E   F   G     ",
"  H I D r J K z E L M N O P     ",
"    K   Q   R   S   T   U       ",
"  V W X Y Z 0 `  .....+.@.#.    ",
"  $.  %.  &.  *.  =.  -.  ;.    ",
"                                "};
