/* XPM */
static const char * ghostclosedfolder_xpm[] = {
"16 16 6 1",
"  s None c None",
". c #000000",
"# c #ffff00",
"a c #808080",
"b c #ffffff",
"c c #c0c0c0",
"                ",
"                ",
"    a a         ",
"  a#c#c#a       ",
" a#c#c#c# a a a ",
"  bb b b b b b .",
" a #c#c#c#c#c#a ",
"  bc#c#c#c#c#c .",
" a #c#c#c#c#c#a ",
"  bc#c#c#c#c#c .",
" a #c#c#c#c#c#a ",
"  bc#c#c#c#c#c .",
" a #c#c#c#c#c#a ",
" a a a a a a a .",
"  . . . . . . . ",
"                "};
