/* XPM */
static const char * ghostcompressedfile_xpm[] = {
"16 16 10 1",
"  s None c None",
". c #646464",
"# c #000000",
"a c #85b5ff",
"b c #4a7bcc",
"c c #c8c8c8",
"d c #ffffff",
"e c #323232",
"f c #555555",
"g c #969696",
"                ",
"     bbbabbb    ",
"       bbb      ",
"  bbbbbbbbbbbb  ",
" ba    bbb      ",
"ab   bbbbbbb eg ",
"bbc#dddddddd#ge ",
"bbc.df ff fd #ge",
"bbc dddddddddd .",
"bbc#d ff ff fd#.",
"bbc dddddddddd e",
"bbc.df ff ff d#e",
"bbc#dddddddddd e",
"bbc.# #. .# # #e",
"abbbbbbbbbbbbbac",
" abbbbbbbbbbbbb "};
