/* XPM */
static const char * ghostcompressedtar_xpm[] = {
"16 16 63 1",
" 	c None",
".	c #4A7BCC",
"+	c #85B5FF",
"@	c #8F8981",
"#	c #A49F98",
"$	c #928D86",
"%	c #98938C",
"&	c #8C8478",
"*	c #6B6355",
"=	c #61594B",
"-	c #655F55",
";	c #6F6A61",
">	c #87837B",
",	c #9A9690",
"'	c #C3BFB7",
")	c #BDB9B1",
"!	c #BBB6AF",
"~	c #B6B2AC",
"{	c #B3AFA9",
"]	c #B5B0A9",
"^	c #98948E",
"/	c #D6D2CA",
"(	c #D5D0C9",
"_	c #D5D1C9",
":	c #D3CFC7",
"<	c #D1CCC5",
"[	c #CDC8C1",
"}	c #C9C5BD",
"|	c #C1BCB5",
"1	c #BDB8B1",
"2	c #A5A099",
"3	c #D0CCC4",
"4	c #CECAC2",
"5	c #CCC8C0",
"6	c #C6C2BA",
"7	c #C3BEB7",
"8	c #C0BBB4",
"9	c #B7B2AB",
"0	c #9D9993",
"a	c #BFBBB3",
"b	c #BFBAB3",
"c	c #BAB5AE",
"d	c #B8B3AA",
"e	c #BCB7B0",
"f	c #A7A29B",
"g	c #BDB7AF",
"h	c #B9B3AB",
"i	c #B7B2A9",
"j	c #B4AFA6",
"k	c #B5AFA7",
"l	c #A8A39C",
"m	c #A29E98",
"n	c #B3AEA7",
"o	c #B0ABA4",
"p	c #AFAAA3",
"q	c #ADA8A1",
"r	c #AAA59E",
"s	c #ACA7A0",
"t	c #A39F99",
"u	c #948F88",
"v	c #918C85",
"w	c #88837C",
"x	c #C8C8C8",
"                ",
"     ...+...    ",
"       ...      ",
"  ............  ",
" .+    ...      ",
"+.   .......@#$ ",
"..%& * =-; > ,% ",
".. ')) ! ~{{] ^ ",
".. /(_:<[} |12  ",
"..  345}67819 0 ",
".. a| b1 cd ef  ",
"..  8b1gchijklm ",
".. n oopq r s t ",
".. u$ v @ @vww  ",
"+.............+x",
" +............. "};
