/* XPM */
static const char * LockedFolder_xpm[] = {
"16 16 9 1",
"  s None c None",
". c #000000",
"# c #646464",
"a c #ffff00",
"b c #808080",
"c c #ffffff",
"d c #323232",
"e c #c0c0c0",
"f c #969696",
"                ",
"   bbbbb        ",
"  baeaeab fdd#  ",
" baeaeaeafdffdf ",
" bcccccccdfacad ",
" bcaeaeaedeaead ",
" bceaeaedddddddd",
" bcaeaead######d",
" bceaeaedffffffd",
" bcaeaeadffddffd",
" bceaeaedff#dffd",
" bcaeaeadff#dffd",
" bbbbbbbdff#dffd",
"  ......dffffffd",
"        dddddddd",
"                "};
