/* XPM */
static const char * paste[] = {
"20 20 9 1",
"  s None c None",
". c #808080",
"# c #808000",
"a c #ffff00",
"b c #000000",
"c c #919100",
"d c #ffffff",
"e c #c0c0c0",
"f c #000080",
"                    ",
"       bbbbb        ",
"  bbbbbbbaabbbbbb   ",
"  bbbbbbbaabbbbbb   ",
" b##c#baabbabbe#ebb ",
".bcc.bddddddddb.#bb ",
".b##.bbbbbbbbbb.ebb ",
".bcc#c#cccfffffffbb ",
".bcc#c#cccfffffffbb ",
".b##c#c##.fdddddfff ",
".bcc#c#cc.fdddddfddf",
".b##c#c##.fdbbbdffff",
".bcc#c#cc.fddddddddf",
".bcc#c#cc.fddddddddf",
".b##c#c##.fdbbbbbddf",
" .bbbbbbbbfddddddddf",
"  ........ffffffffff",
"         ........   ",
"         ........   ",
"                    "};
