/* XPM */
static const char * pipe_xpm[] = {
"16 16 9 1",
"  s None c None",
". c #000000",
"# c #808080",
"a c #c8c8c8",
"b c #e2e2e2",
"c c #004000",
"d c #ffffff",
"e c #969696",
"f c #585858",
"#               ",
"..              ",
" ....f          ",
"  .fd.f         ",
"  cb#..f        ",
"  #cbed.f       ",
"   #cbdd.f      ",
"    #cb#..f     ",
"     #cbed.f    ",
"      #cbdd.f   ",
"       #cb#..f  ",
"        #cbed.f ",
"         #cbdb.#",
"          #.ab.#",
"           #..f ",
"            ##  "};
