/* XPM */
static const char * redo[] = {
"22 22 8 1",
"  s None c None",
". c #008080",
"# c #0000ff",
"a c #323232",
"b c #00ffff",
"c c #000080",
"d c #0098b1",
"e c #0000cc",
"                      ",
"                      ",
"           b##        ",
"           b#ee       ",
"           bddee      ",
"             ddee     ",
"              ddee    ",
"     eeeeeeeeedddee   ",
"    edeeeeeeeeeeeeee  ",
"   edecccccccceeece   ",
"   edc        ddc..   ",
"   ed.       ddc..    ",
"   ed.      ddc..     ",
"   ed.      dc..      ",
"   ed.      c..       ",
"   ed.      ..        ",
"   eed                ",
"   .eedddddddddddd    ",
"    eeeeeeeeeeeeee    ",
"     .aaaaaaaaaaaa    ",
"                      ",
"                      "};
