/* XPM */
static const char * separator_xpm[] = {
"16 16 3 1",
"  s None c None",
". c #c8c8c8",
"# c #969696",
"                ",
"                ",
"                ",
"########        ",
"....#...        ",
"   .#           ",
"   .#           ",
"   .#           ",
"   .#           ",
"   .#           ",
"   .#           ",
"   .#           ",
"....#...        ",
"########        ",
"                ",
"                "};

