/* XPM */
static const char * symlinkbroken_xpm[] = {
"16 16 6 1",
" 	c None",
".	c #808080",
"+	c #646464",
"@	c #323232",
"#	c #C8C8C8",
"$	c #969696",
"                ",
"  ..            ",
" +@@+           ",
"+@+@@@          ",
"@+# +@  @       ",
"++   $  .+      ",
"+.      .@+  @# ",
"        #@@# @+ ",
"      #@ #@@ @+ ",
"      #+@ @@+@+ ",
"       #+@#@@@+ ",
"        #+@@@@+ ",
"         #+@@@+ ",
"          #+@@+ ",
"           #+++ ",
"             ## "};
