/* XPM */
static const char * SymlinkToFolder_xpm[] = {
"16 16 11 1",
"  s None c None",
". c #808080",
"# c #000000",
"a c #ffff00",
"b c #646464",
"c c #c8c8c8",
"d c #ffffff",
"e c #c0c0c0",
"f c #323232",
"g c #d8d8d8",
"h c #969696",
"                ",
" cffh           ",
"hfbfff          ",
"hbccbff         ",
"hb   hff        ",
"      bff  fh   ",
"      ghfb fb   ",
"    hfehffhfb   ",
"    hbfaffbfbhh ",
"     hbfhfffbaa#",
"     .abffffbae#",
"     .acbfffbea#",
"     .dacbffbae#",
"     .aeaebbbea#",
"     .aaeaeaeaa#",
"     ..........#"};
