/* XPM */
static const char * symlink_xpm[] = {
"16 16 5 1",
"  s None c None",
". c #646464",
"# c #c8c8c8",
"a c #323232",
"b c #969696",
"                ",
"                ",
"  ..a.          ",
" .a.aaa         ",
" a.# .aa        ",
" ..   ba.       ",
" ##    .a.  a#  ",
"       #aa# a.  ",
"     #a #aa a.  ",
"     #.a aa.a.  ",
"      #.a#aaa.  ",
"       #.aaaa.  ",
"        #.aaa.  ",
"         #.aa.  ",
"          #...  ",
"            ##  "};
