/* XPM */
static const char * tarball_xpm[] = {
"16 16 135 2",
"  	c None",
". 	c #D9D9D9",
"+ 	c #9E9C9A",
"@ 	c #B7B6B5",
"# 	c #ADADAB",
"$ 	c #B5B3AE",
"% 	c #C1BDB6",
"& 	c #B6B6B3",
"* 	c #C8C9CA",
"= 	c #E7E7E6",
"- 	c #C5C2BC",
"; 	c #C3BFB9",
"> 	c #BFBBB5",
", 	c #C5C1BA",
"' 	c #A09D97",
") 	c #9A9895",
"! 	c #BDBBB7",
"~ 	c #C9C7C3",
"{ 	c #C7C5C1",
"] 	c #CACACB",
"^ 	c #CAC6BF",
"/ 	c #9F9B94",
"( 	c #76726D",
"_ 	c #746F66",
": 	c #8E8983",
"< 	c #ADA9A4",
"[ 	c #C1BDB7",
"} 	c #C5C1BB",
"| 	c #C3C0BA",
"1 	c #D4D4D3",
"2 	c #989590",
"3 	c #A5A098",
"4 	c #938C81",
"5 	c #7B7367",
"6 	c #6A6255",
"7 	c #534B3F",
"8 	c #5E574C",
"9 	c #736D64",
"0 	c #85817A",
"a 	c #9B9791",
"b 	c #AEAAA5",
"c 	c #ACA9A3",
"d 	c #9F9D99",
"e 	c #99968F",
"f 	c #B8B4AC",
"g 	c #B5B0A7",
"h 	c #ADA89F",
"i 	c #AEA9A0",
"j 	c #ABA79D",
"k 	c #A9A49D",
"l 	c #A8A39D",
"m 	c #A8A49D",
"n 	c #ABA7A1",
"o 	c #B3AFA7",
"p 	c #908C86",
"q 	c #AAA69F",
"r 	c #CDC8C0",
"s 	c #D7D2C9",
"t 	c #D5D0C7",
"u 	c #D4D0C7",
"v 	c #D2CDC4",
"w 	c #CDC9C1",
"x 	c #C8C4BC",
"y 	c #C3BFB7",
"z 	c #BFBBB2",
"A 	c #BEB8AF",
"B 	c #ADA9A1",
"C 	c #9A958E",
"D 	c #A7A49F",
"E 	c #CBC6BE",
"F 	c #D3CEC4",
"G 	c #CFCAC2",
"H 	c #CCC8C0",
"I 	c #C9C5BD",
"J 	c #C5C1B9",
"K 	c #C2BEB6",
"L 	c #BFBBB3",
"M 	c #BCB7AF",
"N 	c #BAB5AC",
"O 	c #ACA79F",
"P 	c #9B968F",
"Q 	c #A6A39E",
"R 	c #C8C4BB",
"S 	c #CBC7BF",
"T 	c #C0BCB4",
"U 	c #BCB8B0",
"V 	c #B9B5AC",
"W 	c #B9B3AA",
"X 	c #ABA79F",
"Y 	c #C2BEB7",
"Z 	c #C6C2BA",
"` 	c #C4C0B8",
" .	c #BDB9B1",
"..	c #BBB6AE",
"+.	c #B8B3AA",
"@.	c #B7B1A8",
"#.	c #ABA79E",
"$.	c #A09C96",
"%.	c #C1BDB5",
"&.	c #BEBAB2",
"*.	c #B9B3AB",
"=.	c #B6B0A8",
"-.	c #B4AFA6",
";.	c #ABA69E",
">.	c #A29E98",
",.	c #C1BCB4",
"'.	c #C0BBB3",
").	c #BEB9B0",
"!.	c #BBB6AC",
"~.	c #B6B1A7",
"{.	c #B6B0A7",
"].	c #ADA8A0",
"^.	c #A39F99",
"/.	c #9F9C96",
"(.	c #B2AEA8",
"_.	c #B7B3AB",
":.	c #B5B1A9",
"<.	c #B4B0A8",
"[.	c #B2AEA6",
"}.	c #AFABA3",
"|.	c #AEAAA2",
"1.	c #B0ACA3",
"2.	c #A7A39B",
"3.	c #9E9A93",
"4.	c #86827A",
"5.	c #938E87",
"6.	c #949089",
"7.	c #928E88",
"8.	c #938D85",
"9.	c #928C84",
"0.	c #938E86",
"a.	c #95918A",
"b.	c #938E88",
"c.	c #8E887F",
"d.	c #8A8781",
"                                ",
"          . + @                 ",
"        # $ % & * =             ",
"      - ; > , ' ) ! ~ {         ",
"  ] ! ^ ; / ( _ : < [ } | 1     ",
"  2 3 4 5 6 7 8 9 0 a b c d     ",
"  e f g h i j k l m n o m p     ",
"  q r s t u v w x y z A B C     ",
"  D E F G H I J K L M N O P     ",
"  Q R G S I J y T U V W X a     ",
"  Q Y I Z ` K T  ...+.@.#.$.    ",
"  D L ` K %.&.U ..*.=.-.;.>.    ",
"  D &.K ,.'.).M !.+.~.{.].^.    ",
"  /.(._.:.<.o [.}.|.|.1.2.3.    ",
"  4.5.6.5.7.8.8.9.0.a.b.c.d.    ",
"                                "};
