/* XPM */
static const char * undo[] = {
"22 22 7 1",
"  s None c None",
". c #008080",
"# c #323232",
"a c #00ffff",
"b c #000080",
"c c #0098b1",
"d c #0000cc",
"                      ",
"                      ",
"         ad           ",
"        adc           ",
"       adcc           ",
"      adcc            ",
"     adcc             ",
"    adccccccccccc.    ",
"   adddddddddddddc.   ",
"    dbdddbbbbbbbbdc.  ",
"    ..bcc        bdc  ",
"     ..bcc       .dc  ",
"      ..bcc      .dc  ",
"       ..bc      .dc  ",
"        ..b      .dc  ",
"         ..      .dc  ",
"                 cdc  ",
"     ccccccccccccdd.  ",
"     dddddddddddddd   ",
"     ############.    ",
"                      ",
"                      "};
