/* XPM */
static const char * UnknownFile_xpm[] = {
"16 16 23 1",
" 	c None",
".	c #000000",
"+	c #FFFFFF",
"@	c #FEFEFE",
"#	c #4F4F4F",
"$	c #989898",
"%	c #919191",
"&	c #020202",
"*	c #C2C2C2",
"=	c #454545",
"-	c #CDCDCD",
";	c #B5B5B5",
">	c #C4C4C4",
",	c #B2B2B2",
"'	c #F7F7F7",
")	c #0D0D0D",
"!	c #969696",
"~	c #757575",
"{	c #F3F3F3",
"]	c #656565",
"^	c #BCBCBC",
"/	c #4E4E4E",
"(	c #A6A6A6",
"                ",
"                ",
"  ........      ",
"  .++++++..     ",
"  .@.#.$+.+.    ",
"  .%&*=&-....   ",
"  .;.>..,+++.   ",
"  .++')=++++.   ",
"  .+.!.@.+.+.   ",
"  .++~{+++++.   ",
"  .+.].+.+.+.   ",
"  .+^./+++++.   ",
"  .+.(.+.+.+.   ",
"  .+++++++++.   ",
"  ...........   ",
"                "};
