/* XPM */
static const char * UnknownFolder_xpm[] = {
"16 16 63 1",
" 	c None",
".	c #808080",
"+	c #E9E915",
"@	c #B9B9AF",
"#	c #EBEB19",
"$	c #86867A",
"%	c #CACA9E",
"&	c #F4F420",
"*	c #CACA9F",
"=	c #AFAF17",
"-	c #484839",
";	c #2A2A04",
">	c #181816",
",	c #626262",
"'	c #F9F9D7",
")	c #F6F6F5",
"!	c #FEFEDD",
"~	c #F2F2F1",
"{	c #0D0D0B",
"]	c #505050",
"^	c #EFEFD0",
"/	c #030303",
"(	c #282828",
"_	c #EDEDED",
":	c #858585",
"<	c #070707",
"[	c #F9F9F9",
"}	c #FFFF2D",
"|	c #CBCBC0",
"1	c #F9F92A",
"2	c #161615",
"3	c #2B2B07",
"4	c #C0C0B5",
"5	c #070701",
"6	c #0E0E0D",
"7	c #FCFC2A",
"8	c #85857B",
"9	c #060606",
"0	c #CBCBA9",
"a	c #E5E51E",
"b	c #C0C097",
"c	c #909013",
"d	c #0A0A07",
"e	c #A4A415",
"f	c #838381",
"g	c #F6F624",
"h	c #EDED1F",
"i	c #25251D",
"j	c #D2D21B",
"k	c #BFBF96",
"l	c #ABAB16",
"m	c #62620D",
"n	c #24241C",
"o	c #5B5B48",
"p	c #383807",
"q	c #909090",
"r	c #919170",
"s	c #898987",
"t	c #90906F",
"u	c #80807F",
"v	c #121212",
"w	c #111111",
"x	c #000000",
"                ",
"   .....        ",
"  .+@#@#$       ",
" .+%&*=-;>,.... ",
" .')!~{]^/(___:<",
" .[}|1234567|789",
" .[0&*abcde*&*f9",
" .[g*&*hij*&*&89",
" .[0&*&kl*&*&*f9",
" .[g*&*mn&*&*&89",
" .[0&*&op*&*&*f9",
" .[g*&*&*&*&*&89",
" .qrstststststu9",
"  vwwwwwwwwwwwwx",
"                ",
"                "};
