/* XPM */
static const char *usb_xpm[] = {
/* columns rows colors chars-per-pixel */
"16 16 107 2",
"   c black",
".  c #0C1E95",
"X  c #10269D",
"o  c #1026A0",
"O  c #1028A0",
"+  c #1531A7",
"@  c #1632A7",
"#  c #1D3EB0",
"$  c #1D3FB0",
"%  c #2348B6",
"&  c #234BB6",
"*  c #284FB9",
"=  c #2650B9",
"-  c #2850B9",
";  c #2D59BC",
":  c #2C58BE",
">  c #2C59BE",
",  c #315FBF",
"<  c #325FC1",
"1  c #3A5FC3",
"2  c #3A68C4",
"3  c #3A6BC6",
"4  c #3F70C8",
"5  c #4166C5",
"6  c #4166C6",
"7  c #496FC8",
"8  c #467CCB",
"9  c #4970C8",
"0  c #547ACB",
"q  c #5479CC",
"w  c #547ACC",
"e  c #4F83CE",
"r  c #5083CE",
"t  c #588AD3",
"y  c #5D93D5",
"u  c #5F92D5",
"i  c #5F93D5",
"p  c #6084CF",
"a  c #6086CF",
"s  c #6499D8",
"d  c #6499D9",
"f  c #6699D8",
"g  c #6D90D3",
"h  c #799AD7",
"j  c #799CD7",
"k  c #6BA0DA",
"l  c #6DA0DA",
"z  c #6DA1DC",
"x  c #70A5DC",
"c  c #70A5DD",
"v  c #75A9DE",
"b  c #84A5DA",
"n  c #8CABDD",
"m  c #8DABDD",
"M  c #8CACDD",
"N  c #90AFDE",
"B  c #92AFDE",
"V  c #92AFDF",
"C  c #92B0DE",
"Z  c #92B0DF",
"A  c #96B3DF",
"S  c #96B4DF",
"D  c #96B3E0",
"F  c #96B4E0",
"G  c #98B4E0",
"H  c #9CB7E1",
"J  c #9CB9E1",
"K  c #A0BCE3",
"L  c #A1BCE3",
"P  c #A0BCE4",
"I  c #A5C0E4",
"U  c #A5C0E5",
"Y  c #A5C1E4",
"T  c #A5C1E5",
"R  c #A6C0E4",
"E  c #A6C0E5",
"W  c #A6C1E4",
"Q  c #A6C1E5",
"!  c #AAC4E6",
"~  c #AAC4E7",
"^  c #ABC4E6",
"/  c #ABC4E7",
"(  c #ABC5E6",
")  c #AFC7E7",
"_  c #AFC7E8",
"`  c #AFC8E8",
"'  c #B0C8E8",
"]  c #B2CBE9",
"[  c #B3CBE9",
"{  c #B6CEEB",
"}  c #B7CEEB",
"|  c #BAD1EC",
" . c #BBD1EC",
".. c #BDD3ED",
"X. c #BDD3EE",
"o. c #BED3ED",
"O. c #C0D5EE",
"+. c #C0D6EE",
"@. c #C2D7EF",
"#. c #C3D7EF",
"$. c #C3D9EF",
"%. c #C4D9EF",
"&. c #C5DAEF",
"*. c #C4D9F0",
"=. c #C4DAF0",
"-. c #C5DAF0",
";. c None",
/* pixels */
";.;.;.;.;.;.;.;.;.;.;.;.;.;.;.;.",
";.;.;.;.;.;.;.;.;.;.;.;.;.;.;.;.",
";.;.;.;.;.;.;.k f ;.;.;.;.;.;.;.",
";.;.;.;.;.z l f y ;.;.;.;.;.;.;.",
";.;.;.;.c z ;.;.;.;.;.;.;.;.;.;.",
";.;.;.;.l ;.;.;.;.;.;.;.;.;.;.;.",
";.v c ;.f ;.;.;.;.;.;.;.;.= ;.;.",
"v +.o.f { t e 8 3 3 , > * M $ ;.",
"z o.} s t r 8 K 3 < : = % b h X ",
";.f u ;.;.;.;.2 ;.;.;.;.;.@ X ;.",
";.;.;.;.;.;.;.2 ;.;.;.;.;.X ;.;.",
";.;.;.;.;.;.;.> = ;.;.;.;.;.;.;.",
";.;.;.;.;.;.;.;.& $ + O ;.;.;.;.",
";.;.;.;.;.;.;.;.;.;.O . ;.;.;.;.",
";.;.;.;.;.;.;.;.;.;.;.;.;.;.;.;.",
";.;.;.;.;.;.;.;.;.;.;.;.;.;.;.;."
};
