/* XPM */
static char * 4PaneIcon32_xpm[] = {
"32 32 664 2",
"  	c None",
". 	c #7690BD",
"+ 	c #6C8BC3",
"@ 	c #6186CA",
"# 	c #6386CA",
"$ 	c #6386CB",
"% 	c #6387CC",
"& 	c #6487CC",
"* 	c #6589CD",
"= 	c #658ACE",
"- 	c #668ACE",
"; 	c #6286CC",
"> 	c #6488CD",
", 	c #668ACF",
"' 	c #668BCF",
") 	c #7591C5",
"! 	c #7894C5",
"~ 	c #678BD0",
"{ 	c #668BD0",
"] 	c #6489CE",
"^ 	c #678BCE",
"/ 	c #678ACE",
"( 	c #688BCA",
"_ 	c #6D8CC1",
": 	c #8396BB",
"< 	c #7C93BF",
"[ 	c #7490C3",
"} 	c #7792C4",
"| 	c #7991C0",
"1 	c #758EBF",
"2 	c #708CBF",
"3 	c #7590C3",
"4 	c #7994C7",
"5 	c #7C97CA",
"6 	c #7B96CA",
"7 	c #7C97CB",
"8 	c #7D98CC",
"9 	c #7E99CD",
"0 	c #899EC5",
"a 	c #8BA0C5",
"b 	c #7D99CD",
"c 	c #7D99CC",
"d 	c #7D98CB",
"e 	c #7C98CB",
"f 	c #7893C6",
"g 	c #738FC0",
"h 	c #728EBF",
"i 	c #718BC0",
"j 	c #768DBA",
"k 	c #AAAAB5",
"l 	c #ABABB1",
"m 	c #ACAEAF",
"n 	c #AEB2B6",
"o 	c #B3B3B1",
"p 	c #B7AF9F",
"q 	c #A8A198",
"r 	c #969798",
"s 	c #A3A3A3",
"t 	c #B5B6B6",
"u 	c #BDBCBC",
"v 	c #C2C2C2",
"w 	c #C1C2C2",
"x 	c #C4C4C4",
"y 	c #AEAFB0",
"z 	c #9FA1A4",
"A 	c #979D96",
"B 	c #979D92",
"C 	c #8D90A2",
"D 	c #9494A4",
"E 	c #A3A9A5",
"F 	c #AEB1AD",
"G 	c #BDBCB7",
"H 	c #B9B8B6",
"I 	c #AEADAA",
"J 	c #A7A6A1",
"K 	c #A9A6A4",
"L 	c #A4A2A2",
"M 	c #A6A4A3",
"N 	c #AAA8A7",
"O 	c #ABA9A8",
"P 	c #ADABAB",
"Q 	c #ACABAA",
"R 	c #ACA9A9",
"S 	c #AEACAC",
"T 	c #ADABAA",
"U 	c #AEADAC",
"V 	c #A7ADA6",
"W 	c #ACADAC",
"X 	c #B1B1B0",
"Y 	c #A8A5A4",
"Z 	c #A6A7A5",
"` 	c #ACABAB",
" .	c #AEACAB",
"..	c #ADAAAA",
"+.	c #A7A5A4",
"@.	c #A4A3A3",
"#.	c #A4A3A1",
"$.	c #A3A3A0",
"%.	c #A19FA3",
"&.	c #A3A2A5",
"*.	c #B8BBB0",
"=.	c #A3A4AF",
"-.	c #908FB0",
";.	c #AEA9B8",
">.	c #C6BFBC",
",.	c #BABAB7",
"'.	c #B7C0B7",
").	c #BCC8C2",
"!.	c #C2D0C9",
"~.	c #C0CEC6",
"{.	c #C0CDC6",
"].	c #BFCCC4",
"^.	c #B7C2BC",
"/.	c #B6C0BA",
"(.	c #B6C0BC",
"_.	c #B8C0BB",
":.	c #B8B8AF",
"<.	c #B3B0A5",
"[.	c #B1AEA6",
"}.	c #C1B6AE",
"|.	c #C0B8B4",
"1.	c #B7BBB1",
"2.	c #B6C0B9",
"3.	c #BDCAC3",
"4.	c #C1CEC7",
"5.	c #C2D0C8",
"6.	c #C3D0C9",
"7.	c #C4D2C9",
"8.	c #BDC8C1",
"9.	c #D6D0C6",
"0.	c #ADA8BB",
"a.	c #8681B3",
"b.	c #BAAFC6",
"c.	c #EBDBD8",
"d.	c #DAD6D0",
"e.	c #C9DAC6",
"f.	c #D3EDE0",
"g.	c #E0FEED",
"h.	c #DEFCEC",
"i.	c #DFFCEC",
"j.	c #DFFCEA",
"k.	c #D0E6D7",
"l.	c #CBE1D5",
"m.	c #CCE1D5",
"n.	c #D0E0D6",
"o.	c #BABECE",
"p.	c #A4ACBE",
"q.	c #9DA7BB",
"r.	c #C0BFD4",
"s.	c #CEC9D9",
"t.	c #CAD5C3",
"u.	c #CEE4D4",
"v.	c #DBF8E9",
"w.	c #DEFCEB",
"x.	c #DCF9E9",
"y.	c #DDFAEA",
"z.	c #DEFBEB",
"A.	c #E0FEEE",
"B.	c #D3EBDE",
"C.	c #E1D8D1",
"D.	c #DFD5CD",
"E.	c #E8D9D4",
"F.	c #FAE6E7",
"G.	c #FEEAEB",
"H.	c #E7E1DB",
"I.	c #C9DDCB",
"J.	c #DAF7E7",
"K.	c #E0FFEE",
"L.	c #DFFEED",
"M.	c #DEFDEC",
"N.	c #D0E9DC",
"O.	c #CDE5D9",
"P.	c #CFE5D9",
"Q.	c #CDE2E0",
"R.	c #6E96EB",
"S.	c #5689F3",
"T.	c #5589F6",
"U.	c #5B8CF9",
"V.	c #86A4F5",
"W.	c #BACCCE",
"X.	c #D4EEDE",
"Y.	c #D6F1E2",
"Z.	c #D8F3E4",
"`.	c #DDFBEB",
" +	c #E1FFEF",
".+	c #D4EDE0",
"++	c #E5DBD4",
"@+	c #E2D7CE",
"#+	c #EEDED7",
"$+	c #FFECEC",
"%+	c #E8E1DB",
"&+	c #CADDC8",
"*+	c #D9F6E7",
"=+	c #DEFDED",
"-+	c #C2E7F0",
";+	c #72A4F0",
">+	c #D0E7D9",
",+	c #D1E7D9",
"'+	c #78A6F1",
")+	c #578AF4",
"!+	c #749AEA",
"~+	c #4A83FA",
"{+	c #3979FE",
"]+	c #417EFD",
"^+	c #6494EA",
"/+	c #C5E3E3",
"(+	c #E1FFEB",
"_+	c #DDFCEB",
":+	c #E1D6CE",
"<+	c #EADAD5",
"[+	c #FEE9EA",
"}+	c #E7E1DA",
"|+	c #C9DBC6",
"1+	c #D7F3E4",
"2+	c #E0FFEF",
"3+	c #E0FFED",
"4+	c #D4F5EE",
"5+	c #70A5F7",
"6+	c #407FFA",
"7+	c #B5D4DF",
"8+	c #B0CFE1",
"9+	c #4381FB",
"0+	c #618FF1",
"a+	c #B3BCD4",
"b+	c #A0B1E8",
"c+	c #4882FB",
"d+	c #2F74FE",
"e+	c #3677FA",
"f+	c #9DC4E9",
"g+	c #D9F8EB",
"h+	c #E1FFEE",
"i+	c #DFFFEE",
"j+	c #E4D9D3",
"k+	c #E0D5CD",
"l+	c #E6D8D2",
"m+	c #F8E5E5",
"n+	c #FDEAEB",
"o+	c #E8E1DA",
"p+	c #C8D9C5",
"q+	c #CDF0EE",
"r+	c #2D70FD",
"s+	c #3678FD",
"t+	c #92BAE7",
"u+	c #7BA9ED",
"v+	c #3275FD",
"w+	c #7198EC",
"x+	c #E0D4C4",
"y+	c #F3DED5",
"z+	c #7B9EF3",
"A+	c #3B7AFC",
"B+	c #2C71FF",
"C+	c #71A2EE",
"D+	c #CCEDEB",
"E+	c #E2FFED",
"F+	c #E4DAD4",
"G+	c #E0D6CD",
"H+	c #E2D5D0",
"I+	c #F1E0E1",
"J+	c #F9E7E8",
"K+	c #C7D8C5",
"L+	c #CFE7DB",
"M+	c #E1FFED",
"N+	c #D0F2EE",
"O+	c #3578FD",
"P+	c #3879FC",
"Q+	c #7FACEB",
"R+	c #4A86F8",
"S+	c #3477FD",
"T+	c #7097ED",
"U+	c #DAD1C7",
"V+	c #E9D8D3",
"W+	c #B8BFE8",
"X+	c #4580FB",
"Y+	c #2F73FE",
"Z+	c #5991F2",
"`+	c #C2E3E9",
" @	c #E2FFEB",
".@	c #E6DCD6",
"+@	c #E1D4CF",
"@@	c #F0DFE0",
"#@	c #E8E2DB",
"$@	c #C8DAC6",
"%@	c #D1EBDE",
"&@	c #DAF5E6",
"*@	c #B9E0F1",
"=@	c #3174FD",
"-@	c #3779FC",
";@	c #75A6EE",
">@	c #3476FD",
",@	c #7197ED",
"'@	c #D9D1C6",
")@	c #E8D7D3",
"!@	c #C6C6E6",
"~@	c #4781FA",
"{@	c #5890F5",
"]@	c #BFE0E7",
"^@	c #E1FEEA",
"/@	c #E0D5CE",
"(@	c #E7D9D4",
"_@	c #F8E6E6",
":@	c #FBE8E9",
"<@	c #CADDC7",
"[@	c #D6F2E4",
"}@	c #D9FAED",
"|@	c #7EB1F6",
"1@	c #3577FD",
"2@	c #81AEEB",
"3@	c #7097EC",
"4@	c #D9D1C7",
"5@	c #F0DDD9",
"6@	c #CDCCE9",
"7@	c #5891F6",
"8@	c #C2E5EB",
"9@	c #E2FFEC",
"0@	c #E2D8D2",
"a@	c #EADBD6",
"b@	c #FEEAEA",
"c@	c #CADCC7",
"d@	c #D8F4E6",
"e@	c #C4E9EF",
"f@	c #4383FB",
"g@	c #4784F9",
"h@	c #8EB7E7",
"i@	c #6F96EC",
"j@	c #DAD1C8",
"k@	c #F2DFDB",
"l@	c #D1CFEC",
"m@	c #C6EAEF",
"n@	c #DFD4CD",
"o@	c #E5D6D2",
"p@	c #F7E4E5",
"q@	c #FEEBEB",
"r@	c #C5D8C6",
"s@	c #D2EBDE",
"t@	c #D8F8EE",
"u@	c #93C1F4",
"v@	c #397AFC",
"w@	c #7CABEE",
"x@	c #8BB4E7",
"y@	c #7096EC",
"z@	c #DBD2C8",
"A@	c #E8D6D2",
"B@	c #CACAEB",
"C@	c #5A91F3",
"D@	c #C6EAEE",
"E@	c #DFFBE8",
"F@	c #D5EFE1",
"G@	c #E8DCD7",
"H@	c #E5D9D2",
"I@	c #EEDEDA",
"J@	c #FFEAEB",
"K@	c #C4D7C6",
"L@	c #DAF6E7",
"M@	c #CDEFEF",
"N@	c #4F8BFA",
"O@	c #4080FB",
"P@	c #B9D7E1",
"Q@	c #7DABEB",
"R@	c #7298ED",
"S@	c #E0D4C9",
"T@	c #FFE9DD",
"U@	c #97AEF3",
"V@	c #3F7DFC",
"W@	c #2A70FF",
"X@	c #72A1EB",
"Y@	c #C6E4E3",
"Z@	c #DBF6E5",
"`@	c #D3EDDF",
" #	c #D5EFE0",
".#	c #D5EDE0",
"+#	c #E8DDD7",
"@#	c #E4D8D1",
"##	c #ECDDD8",
"$#	c #FDEAEA",
"%#	c #C7DAC7",
"&#	c #D4EFE1",
"*#	c #DEFAE9",
"=#	c #DDFCEE",
"-#	c #A1CDF3",
";#	c #3779FD",
">#	c #70A6F6",
",#	c #6EA0EF",
"'#	c #6C94EF",
")#	c #CFCCD0",
"!#	c #C4C7E7",
"~#	c #588BF9",
"{#	c #2D73FF",
"]#	c #3E7CF7",
"^#	c #A2C7E7",
"/#	c #D5F2E5",
"(#	c #DDFAE9",
"_#	c #DBF8E8",
":#	c #DAF6E6",
"<#	c #D9F5E6",
"[#	c #E7DCD6",
"}#	c #E2D7CF",
"|#	c #FAE7E8",
"1#	c #DAF7E8",
"2#	c #E3FFEE",
"3#	c #CAEDEF",
"4#	c #659DF8",
"5#	c #4282FC",
"6#	c #B2D9F0",
"7#	c #6096F2",
"8#	c #5387F5",
"9#	c #91AAE2",
"0#	c #6491F2",
"a#	c #4881FC",
"b#	c #759FE2",
"c#	c #C9E6E1",
"d#	c #E9DDD8",
"e#	c #FDE9E9",
"f#	c #E8E2DA",
"g#	c #C8DAC5",
"h#	c #D3EEDF",
"i#	c #DCFCEF",
"j#	c #A4CFF2",
"k#	c #5D96F9",
"l#	c #CDE7DD",
"m#	c #538CF5",
"n#	c #3677FD",
"o#	c #3E7CFB",
"p#	c #6692F8",
"q#	c #AEBCEF",
"r#	c #C8D4C6",
"s#	c #CEE5D4",
"t#	c #DCFAEA",
"u#	c #D6EFE2",
"v#	c #E1D6CF",
"w#	c #E9DBD6",
"x#	c #FCE9E9",
"y#	c #E7E1D9",
"z#	c #C9DBC5",
"A#	c #CCEAE6",
"B#	c #9FCCF4",
"C#	c #4D89FB",
"D#	c #3E7EFC",
"E#	c #96C4F4",
"F#	c #D3F4ED",
"G#	c #BDDADE",
"H#	c #4382F9",
"I#	c #4280F9",
"J#	c #A5B5E1",
"K#	c #B6BED4",
"L#	c #C7C7E1",
"M#	c #E0D6EB",
"N#	c #ECDFE8",
"O#	c #D0D8C2",
"P#	c #D2EAD8",
"Q#	c #D9F1E4",
"R#	c #E1D5D0",
"S#	c #F4E2E3",
"T#	c #FFEBEC",
"U#	c #E7E0DA",
"V#	c #B3D6E7",
"W#	c #528FFB",
"X#	c #2B6FFE",
"Y#	c #2F72FE",
"Z#	c #669EF8",
"`#	c #74A9F7",
" $	c #6C9EF0",
".$	c #3B7BFB",
"+$	c #9CB0E4",
"@$	c #E3D6C3",
"#$	c #EFDBD1",
"$$	c #FFEAE4",
"%$	c #FCE8E5",
"&$	c #CED6C4",
"*$	c #CEE6D6",
"=$	c #DBF9E9",
"-$	c #DFFFED",
";$	c #DAF2E5",
">$	c #EADDD8",
",$	c #E7DAD4",
"'$	c #E5D7D4",
")$	c #F2E0E1",
"!$	c #A3C8E5",
"~$	c #2F73FF",
"{$	c #4181FC",
"]$	c #4483FC",
"^$	c #4382FC",
"/$	c #3D7DFC",
"($	c #3A7BFC",
"_$	c #799DEF",
":$	c #E6D6D4",
"<$	c #F9E5E5",
"[$	c #F7E6E6",
"}$	c #CCD4C6",
"|$	c #CAE1D3",
"1$	c #D5F0E1",
"2$	c #D4EEE0",
"3$	c #D9F6E6",
"4$	c #F3E3E3",
"5$	c #F9E6E6",
"6$	c #FFEAEA",
"7$	c #E6E0DA",
"8$	c #C9DAC5",
"9$	c #B7D9E4",
"0$	c #639CFA",
"a$	c #7DB0F7",
"b$	c #8ABBF5",
"c$	c #89BAF5",
"d$	c #88B9F5",
"e$	c #73A5EF",
"f$	c #528BF5",
"g$	c #B1BDE4",
"h$	c #FAE6E8",
"i$	c #FEE8E8",
"j$	c #FFE8E8",
"k$	c #CCD5C6",
"l$	c #CDE4D6",
"m$	c #D7F2E3",
"n$	c #DAF2E4",
"o$	c #F4E3E3",
"p$	c #F9E7E7",
"q$	c #FFEBEB",
"r$	c #E7E0DB",
"s$	c #C6D7C6",
"t$	c #CDE8DF",
"u$	c #CDF0EF",
"v$	c #CFF2EE",
"w$	c #D2F3ED",
"x$	c #A1C6E6",
"y$	c #3376FD",
"z$	c #75A3EC",
"A$	c #D9D3DC",
"B$	c #FDE8E8",
"C$	c #FFE9E9",
"D$	c #CDD6C8",
"E$	c #CBE2D4",
"F$	c #E7E1DD",
"G$	c #C4D7CA",
"H$	c #E0FAE5",
"I$	c #E6FFED",
"J$	c #E4FFED",
"K$	c #E5FFEC",
"L$	c #E3FFED",
"M$	c #8FB9EA",
"N$	c #8BB2E8",
"O$	c #E4DADA",
"P$	c #FDE7E7",
"Q$	c #F7E5E5",
"R$	c #CDD7CD",
"S$	c #CAE0D3",
"T$	c #D1EADD",
"U$	c #E7E1DF",
"V$	c #C4D8CE",
"W$	c #CCE3D7",
"X$	c #D6F0E2",
"Y$	c #D5F6EE",
"Z$	c #81B3F6",
"`$	c #5A92F6",
" %	c #3275FE",
".%	c #97BAE5",
"+%	c #E2D9DA",
"@%	c #CDD8D1",
"#%	c #CAE0D4",
"$%	c #CDE3D7",
"%%	c #D8F4E5",
"&%	c #C5D9CF",
"*%	c #D1EBDD",
"=%	c #A3C1E1",
"-%	c #CBE3D6",
";%	c #F5E4E4",
">%	c #FAE7E7",
",%	c #E8E2E0",
"'%	c #C7DCD1",
")%	c #D5F1E2",
"!%	c #D2F4F0",
"~%	c #90C0F5",
"{%	c #8DB9ED",
"]%	c #8CB6EA",
"^%	c #BED5DB",
"/%	c #E4DBDB",
"(%	c #CFDBD3",
"_%	c #CEE8DA",
":%	c #E1FFF0",
"<%	c #DBF4E6",
"[%	c #ECDDDB",
"}%	c #F1E0DE",
"|%	c #F6E4E1",
"1%	c #F6E3E1",
"2%	c #F5E3E1",
"3%	c #E1DBD6",
"4%	c #C5D5C9",
"5%	c #D0E5D6",
"6%	c #D6EDDD",
"7%	c #D8EFDF",
"8%	c #DBF4E2",
"9%	c #DBF3E2",
"0%	c #D7F1E3",
"a%	c #CBE6E3",
"b%	c #C2D9D8",
"c%	c #BFD5D5",
"d%	c #BFD4D4",
"e%	c #C9D6CE",
"f%	c #DCD2CF",
"g%	c #F4E0DE",
"h%	c #F5E1DF",
"i%	c #F6E2DF",
"j%	c #EFDEDB",
"k%	c #CCD4CB",
"l%	c #CBDDD0",
"m%	c #D7EDDD",
"n%	c #D5ECDC",
"o%	c #D5EBDC",
"p%	c #D4EDDE",
"q%	c #CEE1D7",
"r%	c #D5D0D6",
"s%	c #D7D2D9",
"t%	c #DAD5DE",
"u%	c #DAD5DD",
"v%	c #CFD0D8",
"w%	c #BFCDD2",
"x%	c #C4D4D7",
"y%	c #C4D4D8",
"z%	c #C8D8DC",
"A%	c #CCE0E1",
"B%	c #CCDFE1",
"C%	c #CDE0E1",
"D%	c #CFE2E1",
"E%	c #C9D8D9",
"F%	c #C7D6D7",
"G%	c #C7D6D6",
"H%	c #C3CFD5",
"I%	c #CACAD4",
"J%	c #DAD5DF",
"K%	c #DBD6E0",
"L%	c #D6D3DD",
"M%	c #C2CDD3",
"N%	c #C2D0D5",
"O%	c #C8D8DB",
"P%	c #C3D3D8",
"Q%	c #C5D4D8",
"R%	c #C6D2D0",
"S%	c #C2CBC6",
"T%	c #B3C1DC",
"U%	c #B2C2E2",
"V%	c #B1C4ED",
"W%	c #B2C6EE",
"X%	c #B2C5EC",
"Y%	c #B4C9F4",
"Z%	c #B5CCFA",
"`%	c #B5CCF9",
" &	c #B4CCFA",
".&	c #B9CEF8",
"+&	c #C2C9D7",
"@&	c #C2C1BF",
"#&	c #B0B9CA",
"$&	c #B0BACE",
"%&	c #B0BCD3",
"&&	c #B1BDD5",
"*&	c #B2BED6",
"=&	c #B1BDD6",
"-&	c #B3BFD7",
";&	c #AFBBD4",
">&	c #AFBBD3",
",&	c #B0BCD4",
"'&	c #B0BCD5",
")&	c #B1BED6",
"!&	c #B2BED7",
"~&	c #B4BFD5",
"{&	c #B4B8C0",
"]&	c #B2B1B0",
". + @ # $ % & * = * - ; > , ' ) ! ~ { { , , - = ] > - ^ / - ( _ ",
": < [ ) } | 1 2 3 4 5 6 7 8 9 0 a 9 b b 8 c c d e d f 3 g h i j ",
"k l m n o p q r s t u v w v v v v v v v v v v v v x y z A B C D ",
"E F G H I J K L M N O P Q R S T S U V W X Y Z `  ...+.@.#.$.%.&.",
"*.=.-.;.>.,.'.).!.~.{.{.{.].^./.(._.:.<.[.}.|.1.2.3.4.5.6.6.7.8.",
"9.0.a.b.c.d.e.f.g.h.h.h.i.j.k.l.m.n.o.p.q.r.s.t.u.v.w.x.y.z.A.B.",
"C.D.E.F.G.H.I.J.K.L.L.L.L.M.N.O.P.Q.R.S.T.U.V.W.X.M.v.Y.Z.`. +.+",
"++@+#+$+G.%+&+*+K.L.L.L.=+-+;+>+,+'+)+!+~+{+]+^+/+(+M.`._+L. +.+",
"++:+<+[+G.}+|+1+2+L.L.3+4+5+6+7+8+9+0+a+b+c+d+e+f+g+h+K.i+L.2+.+",
"j+k+l+m+n+o+p+f.M.L.L.3+q+r+s+t+u+v+w+x+y+z+A+B+C+D+E+L.L.L.2+.+",
"F+G+H+I+J+%+K+L+Z.K.L.M+N+O+P+Q+R+S+T+U+V+W+X+Y+Z+`+ @L.L.L.2+.+",
".@:++@@@J+#@$@%@&@i+L.=+*@=@-@;@P+>@,@'@)@!@~@Y+{@]@^@L.L.L.2+.+",
"F+/@(@_@:@#@<@[@`.L.M+}@|@=@1@2@>@>@3@4@5@6@c+Y+7@8@9@K.K.L.2+.+",
"0@D.a@b@G.o+c@d@2+L.g.e@f@>@g@h@1@>@i@j@k@l@c+Y+7@m@9@`.`.M. +.+",
"0@n@o@p@q@H.r@s@K.3+t@u@Y+v@w@x@1@>@y@z@A@B@c+Y+C@D@E@Y.F@x. +.+",
"G@H@I@J@n+H.K@O.L@E+M@N@v+O@P@Q@1@>@R@S@T@U@V@W@X@Y@Z@Y.`@ #`..#",
"+#@###$#G.}+%#&#*#=#-#=@;#>#L+,#1@S+'#)#!#~#{#]#^#/#(#_#:#<#M..+",
"[#}#(@|#G.o+<@1#2#3#4#Y+5#6#L+7#1@>@8#9#0#A+a#b#c#(+K.K.K.K. +.#",
"d#H@##e#n+f#g#h#i#j#v+s+k#(+l#m#1@1@n#1@o#p#q#r#s#t#K.L.L.L.K.u#",
"F+v#w#x#G.y#z#A#B#C#=@D#E#F#G#H#1@I#J#K#L#M#N#O#P#`.K.K.K.i+K.Q#",
"F+D.R#S#T#U#p+V#W#X#Y#1@Z#`# $v@1@.$+$@$#$$$%$&$*$t#_+_#:#=$-$;$",
">$,$'$)$T#U#K+!$~${$]$^$/$($P+>@1@P+_$v#:$<$[$}$|$v._#1$2$3$L.;$",
"4$5$6$b@n+7$8$9$0$a$b$c$c$d$e$>@1@f$g$h$i$j$[$k$l$t#v.F@m$`.K.n$",
"o$p$q$6$$#r$s$t$m@u$N+v$N+w$x$y$1@z$A$B$C$j$[$D$E$=$L.`.w.L.K.n$",
"4$5$6$b@$#F$G$>+H$I$J$K$L$3#M$>@1@N$O$P$i$j$Q$R$S$T$_#i+K.L.K.n$",
"4$5$6$b@$#U$V$W$X$K.L.g.Y$Z$`$ % %.%+%P$i$j$Q$@%#%$%%%L.L.L.K.n$",
"4$5$6$b@$#U$&%*%x.-$L.L.m@Y#1@1@1@=%+%P$i$j$Q$@%-%%%M.L.L.L.K.n$",
";%>%$+q$q$,%'%)% +2+K.K.!%~%{%]%]%^%/%i$C$C$5$(%_%_+ + + + +:%<%",
"[%}%|%1%2%3%4%5%6%7%8%9%0%a%b%c%d%e%f%g%h%i%j%k%l%m%7%n%o%n%p%q%",
"r%s%t%t%u%v%w%x%y%z%A%B%C%D%E%F%G%H%I%J%K%K%L%M%N%O%z%y%P%Q%R%S%",
"T%U%V%W%X%Y%Z%`%`%`%`%`%`%`%`%`%`%`%`%`%`%`%`%`%`%`%`%`% &.&+&@&",
"#&$&%&%&%&&&*&=&=&=&=&-&;&>&,&,&;&,&>&'&=&=&=&)&)&=&-&!&=&~&{&]&"};
