/* XPM */
static char *4PaneIcon48[] = {
/* columns rows colors chars-per-pixel */
"62 48 246 2",
"   c #3E76E1",
".  c #3C77EA",
"X  c #3E79ED",
"o  c #3577FD",
"O  c #3678FC",
"+  c #3B7BFB",
"@  c #5155BB",
"#  c #77789C",
"$  c #7C7C9F",
"%  c #6F6CB5",
"&  c #6E6ABB",
"*  c #4979CF",
"=  c #4579D8",
"-  c #507CCB",
";  c #407BEF",
":  c #417CF0",
">  c #427FF9",
",  c #708EBD",
"<  c #4C82E6",
"1  c #4880EA",
"2  c #4783F7",
"3  c #4381FA",
"4  c #4985F6",
"5  c #4A86FA",
"6  c #4D8AFA",
"7  c #5C8EE8",
"8  c #5086F8",
"9  c #558DF5",
"0  c #528EFA",
"q  c #588CF4",
"w  c #5D8DF9",
"e  c #5490FA",
"r  c #5E95F2",
"t  c #5A94F8",
"y  c #6E92CE",
"u  c #7698D1",
"i  c #739CDB",
"p  c #618FEF",
"a  c #6A9BEC",
"s  c #6192F0",
"d  c #6491F8",
"f  c #639BF8",
"g  c #6A95F7",
"h  c #689BF0",
"j  c #779BE7",
"k  c #739DEB",
"l  c #769BF6",
"z  c #7B9EF6",
"x  c #6BA2F8",
"c  c #71A1EC",
"v  c #7BA6E6",
"b  c #7AADF5",
"n  c #7CB0F6",
"m  c #87A47E",
"M  c #959696",
"N  c #949499",
"B  c #979897",
"V  c #979898",
"C  c #9B9A97",
"Z  c #9B9C9B",
"A  c #8E96A2",
"S  c #9097A3",
"D  c #9696A9",
"F  c #9199A5",
"G  c #959DAA",
"H  c #9D9DA9",
"J  c #93A08B",
"K  c #9FA09F",
"L  c #9FA99D",
"P  c #97A0AE",
"I  c #99A1AC",
"U  c #9BA3B1",
"Y  c #A8988D",
"T  c #A3A19C",
"R  c #A2A2A2",
"E  c #A5A5AD",
"W  c #ABACAB",
"Q  c #A6A7BC",
"!  c #ABABB0",
"~  c #A3B6A3",
"^  c #A4BBA4",
"/  c #ADB2AF",
"(  c #AEB2B5",
")  c #ACB2BA",
"_  c #B3A5A5",
"`  c #B7ABA8",
"'  c #B0B0AC",
"]  c #BCB1AD",
"[  c #BBBBAD",
"{  c #B3B3B3",
"}  c #B1B3BA",
"|  c #B5BAB5",
" . c #B6BDB9",
".. c #BAB4B3",
"X. c #BBBBBB",
"o. c #85A2DC",
"O. c #90ABDA",
"+. c #96B9DD",
"@. c #9FB1DA",
"#. c #9CBDD8",
"$. c #85A3EB",
"%. c #84ACE5",
"&. c #8CA5E6",
"*. c #85A4F5",
"=. c #86B4EE",
"-. c #8CB2E0",
";. c #82B4F6",
":. c #8FBEF5",
">. c #93AAEA",
",. c #94B5EB",
"<. c #91BDEE",
"1. c #98B4E0",
"2. c #9DBFE1",
"3. c #9DB1F2",
"4. c #A89ECA",
"5. c #AFB5C0",
"6. c #A9B6D0",
"7. c #ADBAD4",
"8. c #AFBCD8",
"9. c #B0BDD9",
"0. c #A2B1E5",
"q. c #A5B4EA",
"w. c #B3BEF0",
"e. c #BDC1A3",
"r. c #B7C0B6",
"t. c #B8C1B5",
"y. c #BAC2BD",
"u. c #96C2EF",
"i. c #99C2EA",
"p. c #92C1F4",
"a. c #9AC7F3",
"s. c #9ECAF3",
"d. c #A4C4DC",
"f. c #A8C3D6",
"g. c #AAC0DB",
"h. c #ADC9D7",
"j. c #BDC4C0",
"k. c #BCC9C2",
"l. c #B4C2DD",
"z. c #BEC2DE",
"x. c #BDCBD6",
"c. c #BFC8DA",
"v. c #B6D0D5",
"b. c #B7D4DC",
"n. c #BAD3D5",
"m. c #BDD8D9",
"M. c #A2C6E4",
"N. c #AACDE3",
"B. c #ADD1E7",
"V. c #AED2E9",
"C. c #ABD4F2",
"Z. c #B1C3E6",
"A. c #B4C6EA",
"S. c #BAC4E7",
"D. c #B7CAF3",
"F. c #B4CDFF",
"G. c #B3D9ED",
"H. c #BBDCE5",
"J. c #B4DCF1",
"K. c #B8DFF1",
"L. c #B9E0F1",
"P. c #C2AE86",
"I. c #CDB388",
"U. c #C1BDBD",
"Y. c #C1BFC0",
"T. c #C3C3AD",
"R. c #C6CBA8",
"E. c #C8CEAD",
"W. c #C2C0BF",
"Q. c #C5CBB5",
"!. c #C2C9BC",
"~. c #C8CEB4",
"^. c #CBD1AC",
"/. c #CCD1B5",
"(. c #DBD3B7",
"). c #DCD4BA",
"_. c #E0D7BB",
"`. c #E0D8BB",
"'. c #C1C4C2",
"]. c #C2C9C5",
"[. c #C6CCC9",
"{. c #C8C5C5",
"}. c #CECEC4",
"|. c #CCC9C9",
" X c #C3C3DD",
".X c #C4D3C5",
"XX c #C3D4CB",
"oX c #C5DACE",
"OX c #C9D0CC",
"+X c #C9DCCC",
"@X c #C6DBD0",
"#X c #C7DFD8",
"$X c #CCD4D1",
"%X c #C8DED2",
"&X c #D7CFCF",
"*X c #DBCECE",
"=X c #D3CCDB",
"-X c #DDD3C3",
";X c gray83",
":X c #DED0D0",
">X c #C4CFE7",
",X c #CFCDED",
"<X c #CDD7EB",
"1X c #C5D3F0",
"2X c #C3D5F8",
"3X c #D8D5E2",
"4X c #DAD4EC",
"5X c #CCE0CF",
"6X c #C7E3DF",
"7X c #CBE1D4",
"8X c #CDE5D9",
"9X c #CFE8DA",
"0X c #D0E6D4",
"qX c #D0E6DA",
"wX c #D2EBDD",
"eX c #D9E2DD",
"rX c #C3E1E4",
"tX c #C6EAEF",
"yX c #CEE9E0",
"uX c #C9EDEF",
"iX c #C0E5F0",
"pX c #C5E9F0",
"aX c #D4EEE1",
"sX c #D6F0E2",
"dX c #D4F4ED",
"fX c #D8F4E5",
"gX c #DEFDEC",
"hX c #E1D6C6",
"jX c #E3D9CD",
"kX c #E2D4D4",
"lX c #E5DBD1",
"zX c #E4D8D8",
"xX c #E8D7D7",
"cX c #EADFD2",
"vX c #EADCDC",
"bX c #F0DFDF",
"nX c #E9DCEA",
"mX c #EEE1D5",
"MX c #E1E1E1",
"NX c #EFE3E3",
"BX c #E0FEED",
"VX c #F3E1E1",
"CX c #F7E4E9",
"ZX c #F9E6E6",
"AX c #FCE7E8",
"SX c #FDE9E9",
/* pixels */
",   . . . . . . X X . X X X X X X X X X X X X X X X X X 1 y u 1 X X : : : X X X X X X X X X X X X X ; . X ; . . . . . = * * ",
"I G S G S G S G G A A G F A G F F G G U F F P G P U U U U P P P P P P P P P I I U P P P P G P G G G G G G G G G G G G G I I ",
"} W { { W { ' { W [ { R M V M Z R W R I R R R I I R R R T I I T R R I I R R R R R R R R R R I Z R R K C T B B C R V D C T B ",
"Q E H W ( ) } ) W I.P.Y M M M { {.5.].mXnXyXmXmXmX3XMXMXmXnXaXmXvXyXmXmXnXaXvX3XMXMXMXMXvXaXmXnXnXaX|.V G E C m J N @ R W B ",
"W Z W ! { { ! { Z Z Z V M M M M M M V V M M Z B M M V V N V V V Z M M M M V V C V V M M M M V M V V B B B B B B T B B B V M ",
"^ W X.'.'.| ....| W ..X.X.X.X.X.X.X.X.X.X.X.W.5.X...X.X.|  .X. .X.X.| ~ { X.Y.X.W _ W { } X.X.|  .....X.X.X.X.X.5.X.X.X. .X.",
"U...$ # $ D ] ..X...T..XXXoXaXaXwXwXwXwXwXwXwXwXaXaXk.@X%Xk.k.oXoXX.X.U.W R R R | ` ] X.e.XX.X%XwXaXaXwXwXaXwXwXwXwXwXwXaX! ",
"&X(.% & & 4.SXSXSXNX~.7X%XsXgXgXgXgXBXBXBXBXBXBXBXBXoXBXsX@X#XqXwXeXU.xXT.X.X.X.VXSXSXvX~.qX@XgXBXBXgXgXgXgXgXgXBXBXBXgXgXy.",
":XjX-X:XzXSXSXSXSXNXy.wX8XgXgXgXBXgXgXBXBXgXgXgXgXBX@XgXsX@X%X8XwXaXU.Y.>.>.&.>.3.3.D.=Xy.wX8XgXBXgXfX8X7X8X7XgXgXgXgXgXgX .",
"zXjXhX:XNXSXSXSXSXNX/.5X9XgXgXgXgXBXgXgXgXgXgXgXgXBX7XaXsX@X7XaXfX;Xo.+ o o o o o o o O i #XwXgXBXgXgXgXgXgXgXgXgXgXgXgXgX .",
"zXlX-X:XSXSXSXSXSXNX~.5X9XgXgXgXgXBXBXgXgXBXgXgXBXgX7.f aX@X%XwXqX,.O o o o o o o o o o O q 6XgXgXgXgXgXgXgXgXBXgXgXgXgXgX .",
"zXmX-X:XSXSXSXSXSXNX~.5X8XfXgXgXgXgXgXBXgXgXgXgXgXC.+ o :.@X%XwXN.O o 8 {. X0.w o o o o O O r gXgXgXgXgXgXgXgXgXgXgXgXgXgX .",
":XmXhX:XmXSXSXSXSXNX~.5X7XwXgXgXgXgXBXgXgXgXgXgX:.+ o o 2 @X%X6X> O O 8 _.:X:XAX*.o o o o o o p.BXgXgXgXgXgXgXgXgXgXgXgXgX .",
":XjX).:XvXSXSXSXSXNXQ.5X7XfXgXgXgXgXgXgXgXgXgXgXf o o o o d.%X=.o o O 8 `.:X:XVXSXg o o o o o 5 gXgXgXgXgXgXgXgXgXgXgXgXgXy.",
"zX:X-X:XzXSXSXSXSXNX~.5X7X9XgXgXgXBXgXgXgXgXgXgX;.O o o o %.#X3 O o O 8 `.:X:XbXSX4Xo o o o o o pXgXgXgXgXgXgXgXgXgXgXgXgX .",
"zXmX-X;X:XvXzXSXSXNX~.5X7X9X7X7XgXgXgXgXgXgXgXgXb o o o o v 2.o O O O 8 `.:X:XvXxXxX8 o o o o o M.gXgXgXgXgXgXgXgXgXBXgXgX .",
"zXmX-X&X:X;XvXSXSXNX/.5X7XoXwXaXgXgXgXgXgXgXgXgXe o o o o %.c o o o o 8 _.:X*X*XkXbXp O o o o o M.aXgXBXgXgXgXgXgXgXgXgXgX .",
"zXlX).:XZXZXSXSXSXVX~.%XwXgXgXgXgXgXBXgXgXgXgXL.o o o o o 1.5 o o o o 8 _.*XbXZXZXZXd o o o o o C.gXgXgXgXgXgXgXgXgXgXgXgX .",
"kXjX-XkXZXSXSXSXSXNX~.5X8XgXgXgXgXgXgXgXgXgXgXt o o o o + v.O O o o O 8 _.kXxXAXAXAXd o o o o o C.gXgXgXgXgXgXgXgXgXgXgXgX .",
"zX:X-XzXZXSXSXSXSXNX~.%X7XgXgXgXgXgXgXgXgXgXs.o o o o o n h.o o o o O 8 _.kXxXAXAXAXd o o o o o C.gXgXgXgXgXgXgXgXgXgXgXgX .",
"zXjX-X&XkXSXSXSXSXNX~.7XoX8XgXgXgXBXgXgXgXdX3 O o o o + 6X#.O o o o o 8 (.xX:XxXAXAXd o o o o o C.gXgXgXgXgXgXgXgXgXgXgXgX .",
":XjX-X:XzXSXSXSXSXNX!.7X%XsXgXgXgXgXgXgXBX;.o o o o o p.wX-.o o o o o 8 _.xX*XbXAXAXw o o o o o K.gXfX8X@X8X7X9XgXgXgXgXgX .",
"zXmXjXVXSXSXSXSXSXNXQ.7X@X8XgXgXgXgXgXgXpX+ o o o o 2 gXsXv o o o o o 8 _.kXSXAXAXnX+ o o o o + dXgXgXgXgXgXgXdXgXgXgXgXgX .",
"zXmXhXzXSXSXSXSXSXNXQ.5X7X%X8XwXgXgXgXBXx O o o o o +.fXsXa o o o o o 8 _.xXvXSXAXz o o o o o a 8X7XsX8X5X9X7X7X8X7XgXgXgXy.",
"kXjXjX:X:XZXSXSXSXNX~.+XfXgXgXgXgXgXgXC.o o o o o t 5XwXwXq o o o o o 8 _.xX:XkX3.o o o O O + uXgXgXgXgXgXgXgXgXgXgXgXgXgX .",
"zXmXhX:XSXSXSXSXSXNX~.5X7XsXgXgXgXgXgXe o o o o + L.7XsXsX2 o o o o o 5 }.=X Xz o o o o o + N.fXgXgXgXgXgXgXgXgXgXgXgXgXgXy.",
"zXmX-X:XmXSXSXSXSXNX/.5X7X9XgXgXgXgXp.o o o o o n gX@XgXwXO o o o o o o o o o o o o o o 7 b.7XwXgXgXgXgXgXgXgXgXgXgXgXgXgX| ",
"zXmX-XbXSXSXSXSXSXNX~.5XoXfXgXgXgXL.+ o o o o 3 dXgXn.BXrXo o o o o o o o o o o o + l S.E.7X%XfXgXgXgXgXgXgXgXgXgXgXgXgXgX|.",
"zXjX-X:X:XSXSXSXSXNX~.+XwXfXgXgXL.3 o o o o o p.gXgXoXgXV.o o o o o p $.o.$.&.q.,XCXAXvXE.%XwXgXgXgXgXgXgXgXgXgXgXgXgXgXgXOX",
"zXjX-XzXCXSXSXSXSXNX~.+X9XsXdX:.+ o o o o o e dXgXgXXXsXi.o o o o o @.vX`.:XxXSXAXAXSXmXE.%X9XfXgXgXgXgXgXgXgXgXgXgXgXgXgXOX",
":XmX-X:X:XNXSXSXSXNX~.+X7XG.3 o o o o o o o 3 6 6 6 2 6 3 o o o o o > w `.kXkX:XZXSXSXnXE.%X7XfXgXgXgXgXBXBXgXgXgXgXgXgXgXOX",
"zXmX-X:XvXzXSXSXSXNXy.oX7Xm.o o o o o o o o O o o O o o o o o o o o o 8 `.:X:X:XVXSXCXmXr.8X7X7XfXgXfX9X7X%X8X7XaXgXgXgXBXOX",
"vXSXSXSXSXSXSXSXSXBX~.+X%X%Xt o o o o o o o o o o o o o o o o o o O o g SXSXSXSXZXSXAXvX^.%X7X%XgXgXgXgXgXBXgXgXgXgXgXgXgXOX",
"vXSXSXSXSXSXSXSXSXCXy.5XwXgX:.o 3 x n n n n n n n n c n 3 o o o o + j w.SXAXSXSXSXZXAXNXt.%XwXgXgXgXsX8X%X%X%XgXgXgXgXgXBXOX",
"MXSXSXSXSXSXSXSXSXNX~.oX7X%XH.a.gXgXgXgXgXgXgXgXgXBXXXBX3 o o o o p [.SXAXSXAXAXZXZXSXvXR.%X%X7XfXgXgXgXgXgXgXgXgXgXgXgXgXOX",
"NXSXSXSXSXSXSXSXSXCXk.8X%XsXgXgXBXgXBXBXgXgXgXgXgXBX7XyXO o o o o k |.SXSXAXSXSXSXSXZXcXy.wX%XgXgXgXgXgXgXgXgXgXgXgXgXgXBXOX",
"vXSXSXSXSXSXSXSXSXNXy.wX%X8X7XwXgXBXgXgXgXgXgXgXgXBX@XpXo o o o o %.|.SXSXSXSXAXSXSXSXvXy.wXoXwX@X9XfXgXgXgXgXgXgXgXgXgXgX|.",
"vXSXSXSXSXSXSXSXSXVXj.wXoX8X8XfXgXBXBXgXgXgXgXgXdXdXn.n o o o o o 1.|.SXSXSXAXAXSXSXSXvXy.wXoXwX%XwXfXgXgXgXgXgXgXgXgXgXgX$X",
"vXSXSXSXSXSXSXSXSXNXk.qX7X8X7XgXgXgXgXgXgXgXgXgXx O O o o o o o o 8.|.SXSXAXAXAXSXAXAXMXy.wX8X%X9XgXgXBXgXgXgXgXgXgXgXgXgXOX",
"vXSXSXSXSXSXSXSXSXNXy.wX%XfXgXgXBXgXgXgXgXgXgXgXt + o o o o o o o c.|.SXSXAXAXAXAXAXAXvXy.aX7XfXgXBXgXgXgXBXgXgXgXgXgXBXgX|.",
"NXSXSXSXSXSXSXSXSXNXj.wX@XfXBXgXgXgXgXgXgXgXgXgX5 o o o o o o o + $X|.SXAXAXAXAXAXAXSXvXy.sXoXgXgXgXgXgXgXgXgXgXgXgXgXgXBXOX",
"vXSXSXSXSXSXSXSXSXNXk.wX%XfXgXgXgXgXgXgXgXgXgXgXK.J.d.G.B.d.d.N.N.$X|.SXAXAXAXAXAXAXSXvXy.sX5XdXgXgXgXgXgXgXgXgXgXgXgXgXgXOX",
"vXSXSXSXSXSXSXSXSXNXk.8XqX#X7X8XqXsXgXgXgXgXgXgXgXgXoXgXsX@X7XwXwX[.U.SXSXAXSXAXAXAXAXvXj.aX8X7XqXgXfX%X%X7X7X8X7X7X8X8XaX'.",
"[.|.|.|.|.|.|.|.|.{.X.].].].[.[.[.[.[.[.[.[.[.[.[.[.k.[.].'.k.].].y.X.|.|.}.|.|.|.|.}.{. .'.k.[.[.[.[.[.|.OX[.[.[.[.'.k.].! ",
"5.9.6.9.A.7.9.7.9.Z.D.D.D.D.D.D.D.D.D.D.D.D.D.D.D.D.D.D.D.D.D.D.D.D.D.D.D.D.D.D.D.D.D.D.D.D.D.D.D.D.D.D.D.D.D.D.D.>X .X.X.X.",
"l.F.F.F.F.F.F.F.F.F.F.F.F.F.F.F.F.F.F.F.F.F.F.F.F.F.F.F.F.F.F.F.F.F.F.F.F.F.F.F.F.F.F.F.F.F.F.F.F.F.F.F.F.F.F.F.F.1X;X{.Y.|.",
" X2X2X2X2X2X2X2X2X2X2X2X2X2X2X2X2X2X2X2X2X2X2X2X2X2X2X2X2X2X2X2X2X2X2X2X2X2X2X2X2X2X2X2X2X2X2X2X2X2X2X2X2X2X2X2X2X<X'.X.Y.| ",
"R K K K K R Z R Z R K K K K K K K K K K W Z Z Z Z M Z C Z Z B Z Z Z V C C K K K K K K K K K K Z K K K W R Z Z K R Z R Z K Z "
};
