/* XPM */
static char * FourPaneIcon32_xpm[] = {
"41 32 496 2",
"  	c #7592C5",
". 	c #5B87DB",
"+ 	c #5B87DC",
"@ 	c #5C88DD",
"# 	c #5C89DD",
"$ 	c #5C89DE",
"% 	c #5C88DE",
"& 	c #5D89DF",
"* 	c #5C89DF",
"= 	c #5D8AE0",
"- 	c #5E8BE1",
"; 	c #5D8AE1",
"> 	c #5E8BE2",
", 	c #5D8BE1",
"' 	c #7B99CD",
") 	c #7497D3",
"! 	c #5C89E0",
"~ 	c #5B88DE",
"{ 	c #5B88DD",
"] 	c #5B88DC",
"^ 	c #5A87DB",
"/ 	c #5A86DB",
"( 	c #6087CE",
"_ 	c #678AC5",
": 	c #A7A8AB",
"< 	c #A2A2A5",
"[ 	c #A1A2A1",
"} 	c #A7A8A9",
"| 	c #A5A6A6",
"1 	c #A3A4A4",
"2 	c #A6A6A0",
"3 	c #A09F9E",
"4 	c #919191",
"5 	c #939494",
"6 	c #979898",
"7 	c #9D9E9D",
"8 	c #9C9D9D",
"9 	c #9B9B9B",
"0 	c #9C9C9C",
"a 	c #9E9F9F",
"b 	c #9D9C99",
"c 	c #989897",
"d 	c #989998",
"e 	c #9A9F9A",
"f 	c #9697A0",
"g 	c #999999",
"h 	c #ADAEB7",
"i 	c #A2A2AB",
"j 	c #B7B7B5",
"k 	c #B7BBC0",
"l 	c #B8BBC1",
"m 	c #ACACA8",
"n 	c #B7AA91",
"o 	c #A99D8F",
"p 	c #969797",
"q 	c #AFB0AF",
"r 	c #B4B4B4",
"s 	c #BEBFBF",
"t 	c #C8C9C8",
"u 	c #B0B1B1",
"v 	c #9599A4",
"w 	c #9E9E9D",
"x 	c #929E8F",
"y 	c #959C91",
"z 	c #787AA9",
"A 	c #A0A0A0",
"B 	c #9B9D9B",
"C 	c #A2ACA2",
"D 	c #ABADAC",
"E 	c #B5B6B5",
"F 	c #B3B4B3",
"G 	c #B2ABAB",
"H 	c #ACACAC",
"I 	c #A6A6A6",
"J 	c #AFB0B0",
"K 	c #AFAFAF",
"L 	c #ADAEAD",
"M 	c #AEAEAE",
"N 	c #A2ADA2",
"O 	c #AEB0AF",
"P 	c #A8A8A8",
"Q 	c #A9A3A3",
"R 	c #AEAFAF",
"S 	c #C6C3BE",
"T 	c #7E7EA1",
"U 	c #6565A5",
"V 	c #8582AE",
"W 	c #D2C5C3",
"X 	c #D1C7C7",
"Y 	c #C7C5C4",
"Z 	c #CDDDC7",
"` 	c #CADED3",
" .	c #D8F2E4",
"..	c #C8DBD1",
"+.	c #D4EBDE",
"@.	c #C7DAD0",
"#.	c #D1E7DB",
"$.	c #BDBEBD",
"%.	c #C3C0B9",
"&.	c #A7A7A4",
"*.	c #A4A4A4",
"=.	c #B8B4B4",
"-.	c #D0C2C0",
";.	c #CCC4C4",
">.	c #C8D2BF",
",.	c #CBE0D5",
"'.	c #D3EBDE",
").	c #BFCBC4",
"!.	c #E2D7D7",
"~.	c #D5CCC6",
"{.	c #CDC1CE",
"].	c #E5D5DE",
"^.	c #FEEAEA",
"/.	c #DDD8D7",
"(.	c #C7D8C0",
"_.	c #CCE3D6",
":.	c #DFFEED",
"<.	c #CCE1D6",
"[.	c #DBF8E8",
"}.	c #C4D8CD",
"|.	c #C6D9CF",
"1.	c #D4EDE0",
"2.	c #C8CAC9",
"3.	c #B7BFE3",
"4.	c #A0B1DA",
"5.	c #9EAEE0",
"6.	c #ADBAEC",
"7.	c #BCC3EF",
"8.	c #E2D9E5",
"9.	c #C5CFBA",
"0.	c #C6DCD0",
"a.	c #DCFAEA",
"b.	c #D9F5E5",
"c.	c #D1EBDD",
"d.	c #D4EEE0",
"e.	c #D9F5E6",
"f.	c #C5D4CB",
"g.	c #E0D6D6",
"h.	c #DDD4BE",
"i.	c #E0D2D2",
"j.	c #D1E3C9",
"k.	c #D7F2E4",
"l.	c #C5DFDC",
"m.	c #CEEDE9",
"n.	c #CAE0D4",
"o.	c #CEE5D8",
"p.	c #D8F4E6",
"q.	c #759BE6",
"r.	c #3677FD",
"s.	c #3577FD",
"t.	c #3A7AFC",
"u.	c #88ABDD",
"v.	c #D0E8DB",
"w.	c #E9DDDD",
"x.	c #E4DAC8",
"y.	c #E9DADA",
"z.	c #DDD8D6",
"A.	c #CBDABE",
"B.	c #D1EADD",
"C.	c #C8ECEF",
"D.	c #4D88F7",
"E.	c #77AAF4",
"F.	c #C8DDD2",
"G.	c #CADFD4",
"H.	c #8DB9EF",
"I.	c #749BF4",
"J.	c #9CB0DC",
"K.	c #769BF1",
"L.	c #3778FD",
"M.	c #86B0E5",
"N.	c #DFFDED",
"O.	c #E6DADA",
"P.	c #DDD4C1",
"Q.	c #E0D3D3",
"R.	c #FCE9E9",
"S.	c #CFE0C4",
"T.	c #CCE3D7",
"U.	c #D7F8EE",
"V.	c #4483FC",
"W.	c #3A7BFC",
"X.	c #BED5D4",
"Y.	c #B5D1DA",
"Z.	c #397AFC",
"`.	c #96AEED",
" +	c #DAD0BD",
".+	c #E3D4D4",
"++	c #B2BDF0",
"@+	c #C7E7E9",
"#+	c #E1D6D6",
"$+	c #E2D8C4",
"%+	c #DBCECE",
"&+	c #FBE8E8",
"*+	c #CBDBC1",
"=+	c #CBE2D6",
"-+	c #DFFDEC",
";+	c #407FFC",
">+	c #9EC1E1",
",+	c #72A3EF",
"'+	c #93ABEA",
")+	c #DED4BF",
"!+	c #DFD0D0",
"~+	c #FCE7E7",
"{+	c #7199F7",
"]+	c #91BEEF",
"^+	c #E0D6C6",
"/+	c #E2D4D4",
"(+	c #EBDCDC",
"_+	c #EFDFDF",
":+	c #CDDDBE",
"<+	c #D4EDDF",
"[+	c #DAFAED",
"}+	c #3A7BFD",
"|+	c #8FB4DF",
"1+	c #3F7EFA",
"2+	c #98AFEE",
"3+	c #DDD2C2",
"4+	c #E4D5D5",
"5+	c #ECDBDB",
"6+	c #A1B3EC",
"7+	c #78A5E8",
"8+	c #E5DADA",
"9+	c #DED5BD",
"0+	c #DFD1D1",
"a+	c #ECDDDD",
"b+	c #F6E4E4",
"c+	c #CEE0C8",
"d+	c #D7F3E4",
"e+	c #DDFBEB",
"f+	c #A6D1F2",
"g+	c #89B4E9",
"h+	c #95ADEC",
"i+	c #DBD1B9",
"j+	c #E0D1D1",
"k+	c #EFDDDD",
"l+	c #AAB8ED",
"m+	c #81B3F4",
"n+	c #E4D9CC",
"o+	c #F0E0E0",
"p+	c #DDD7D6",
"q+	c #CCDBBB",
"r+	c #4D8AFB",
"s+	c #4785FA",
"t+	c #88AEDF",
"u+	c #95AEED",
"v+	c #E3D7C9",
"w+	c #F3E0E0",
"x+	c #FEE8E8",
"y+	c #AFBCF0",
"z+	c #82B4F6",
"A+	c #DFD5D5",
"B+	c #D9D1B9",
"C+	c #F7E5E5",
"D+	c #D1E4CE",
"E+	c #CFE7DA",
"F+	c #DEFCEB",
"G+	c #91C0F4",
"H+	c #94C1F2",
"I+	c #84B0EB",
"J+	c #92ABEA",
"K+	c #D6CDB5",
"L+	c #DCCECE",
"M+	c #FAE5E5",
"N+	c #7FB0F2",
"O+	c #E0FEED",
"P+	c #E9DED0",
"Q+	c #E8D8D8",
"R+	c #C5D5BC",
"S+	c #C3D7CC",
"T+	c #D0F2EE",
"U+	c #3F7FFC",
"V+	c #4B87F7",
"W+	c #D7F5E8",
"X+	c #6D9CEA",
"Y+	c #E8DBCD",
"Z+	c #9DB1F2",
"`+	c #8DBAEF",
" @	c #D3EDDE",
".@	c #D3EEDF",
"+@	c #E9DCDC",
"@@	c #DCD3BD",
"#@	c #EEDDDD",
"$@	c #DDD9D7",
"%@	c #CEE1CF",
"&@	c #D1E9DC",
"*@	c #D8F4E4",
"=@	c #7AAEF6",
"-@	c #A0C5E6",
";@	c #DCF9E9",
">@	c #5D94F3",
",@	c #D7CDB7",
"'@	c #F4E1E1",
")@	c #F1E0E9",
"!@	c #4B83FB",
"~@	c #BAD8E2",
"{@	c #D6F1E2",
"]@	c #D2EBDD",
"^@	c #D9F6E6",
"/@	c #E6DCCB",
"(@	c #E4D6D6",
"_@	c #F4E3E3",
":@	c #CAD9BC",
"<@	c #DAF7E7",
"[@	c #C1E6F0",
"}@	c #3879FD",
"|@	c #6099F9",
"1@	c #CCE2D6",
"2@	c #D9F4E5",
"3@	c #4A86F6",
"4@	c #E5D9C8",
"5@	c #D5CDD9",
"6@	c #6290F7",
"7@	c #83B1EC",
"8@	c #DFD5C2",
"9@	c #E1D3D3",
"0@	c #D1E3C7",
"a@	c #DEFDED",
"b@	c #629AF9",
"c@	c #3678FD",
"d@	c #BEE4F0",
"e@	c #CFE6DA",
"f@	c #DBF9E9",
"g@	c #3A7BFB",
"h@	c #407DFB",
"i@	c #4781F6",
"j@	c #427FFB",
"k@	c #91B2D8",
"l@	c #D5EFE1",
"m@	c #C4D3CB",
"n@	c #DFD6C2",
"o@	c #FCE8E8",
"p@	c #CDDEC3",
"q@	c #CDE5D8",
"r@	c #86B7F5",
"s@	c #76AAF7",
"t@	c #CCEDEB",
"u@	c #3F7CF9",
"v@	c #4E85F9",
"w@	c #4B83F5",
"x@	c #598AF7",
"y@	c #799DF5",
"z@	c #E9DDE4",
"A@	c #CAD4BC",
"B@	c #CAE1D5",
"C@	c #DBF7E8",
"D@	c #D1E0D8",
"E@	c #E4D9D9",
"F@	c #DFD6C5",
"G@	c #E8D9D9",
"H@	c #CCDABD",
"I@	c #D3EDDF",
"J@	c #CCEFEF",
"K@	c #72A8F7",
"L@	c #3E7EFC",
"M@	c #D2F4EE",
"N@	c #BDD4D4",
"O@	c #AED5ED",
"P@	c #7D9FE3",
"Q@	c #E1D8DF",
"R@	c #DCD2C1",
"S@	c #EAD9D9",
"T@	c #FDE8E8",
"U@	c #F3E3E3",
"V@	c #CAD2B8",
"W@	c #CEE5D9",
"X@	c #DDD5BD",
"Y@	c #CDDEC6",
"Z@	c #508DFA",
"`@	c #8EA9ED",
" #	c #DAD1BA",
".#	c #DDCECE",
"+#	c #E5D4D4",
"@#	c #CAD4C0",
"##	c #CEE6D9",
"$#	c #F1E1E1",
"%#	c #F6E5E3",
"&#	c #C6D3BB",
"*#	c #7AAAEE",
"=#	c #A8B8EF",
"-#	c #F6E2E1",
";#	c #FBE6E6",
">#	c #C5CEB8",
",#	c #C5D8CD",
"'#	c #C5DACE",
")#	c #D2EADD",
"!#	c #D2ECDE",
"~#	c #D7F4E4",
"{#	c #CBDECE",
"]#	c #DAF6E7",
"^#	c #B5DCF1",
"/#	c #74A9F7",
"(#	c #B0D8F1",
"_#	c #B6D7E6",
":#	c #73A7F6",
"<#	c #9FB2D7",
"[#	c #EBDDE6",
"}#	c #C6D2C5",
"|#	c #D5EEE1",
"1#	c #D1EADC",
"2#	c #DBD6D5",
"3#	c #C3D2BF",
"4#	c #C8DDD1",
"5#	c #D5F1E2",
"6#	c #6FA3F5",
"7#	c #3779FD",
"8#	c #C5C7C9",
"9#	c #F8E4E4",
"0#	c #C2CCBC",
"a#	c #CFE8DA",
"b#	c #DCD7D6",
"c#	c #CEE3D8",
"d#	c #CFE6DC",
"e#	c #538FFA",
"f#	c #4886FA",
"g#	c #C7D5CE",
"h#	c #D0E7DA",
"i#	c #DDFAEA",
"j#	c #C7D9CF",
"k#	c #C6DBD0",
"l#	c #C6DBCF",
"m#	c #DBFBED",
"n#	c #3C7CFB",
"o#	c #5B93F6",
"p#	c #C4D1CA",
"q#	c #C5D9CE",
"r#	c #C7DCD0",
"s#	c #CFE8DB",
"t#	c #DDFBEA",
"u#	c #DBD7D6",
"v#	c #CBDFD4",
"w#	c #6EA1F3",
"x#	c #C6D3CC",
"y#	c #CCE0D5",
"z#	c #CCE4D7",
"A#	c #B2DBF1",
"B#	c #A7CAE4",
"C#	c #B0D8EE",
"D#	c #A3C4DE",
"E#	c #A3C5E1",
"F#	c #BEDCE5",
"G#	c #C9E0D3",
"H#	c #D2E0D8",
"I#	c #E5D8D8",
"J#	c #D1CDCC",
"K#	c #C6D6CE",
"L#	c #C8DAD0",
"M#	c #CBDED4",
"N#	c #D2E7DC",
"O#	c #D7F0E3",
"P#	c #C9DCD1",
"Q#	c #D5ECDF",
"R#	c #C6D7CD",
"S#	c #C6D8CE",
"T#	c #CFE3D8",
"U#	c #B7B9B9",
"V#	c #EBDBDB",
"W#	c #F0DFDF",
"X#	c #E7DBDB",
"Y#	c #BFCBC5",
"Z#	c #C7D8CF",
"`#	c #D2E8DC",
" $	c #D1E6DB",
".$	c #CADDD3",
"+$	c #CDDFD5",
"@$	c #CEE3D7",
"#$	c #C1CBC5",
"$$	c #B7BDC8",
"%$	c #B4BDCE",
"&$	c #B8C2D6",
"*$	c #B7C0D4",
"=$	c #B7C0D1",
"-$	c #B7C1D4",
";$	c #BAC7E0",
">$	c #BCC9E4",
",$	c #C1C2C5",
"'$	c #BABBBA",
")$	c #B7B8B8",
"!$	c #B6C7E8",
"~$	c #B4CDFF",
"{$	c #CED0D4",
"]$	c #BFBFBF",
"^$	c #C1C1C1",
"/$	c #AFB2B6",
"($	c #B0B4BA",
"_$	c #B5B9C0",
":$	c #AEB2B8",
"<$	c #AEB2B9",
"[$	c #ABAFB6",
"}$	c #ADB1B8",
"|$	c #ABAFB5",
"1$	c #ADB1B7",
"2$	c #ACAFB6",
"3$	c #ACB0B6",
"4$	c #AFB3BA",
"5$	c #B7BBC1",
"6$	c #ADAEAE",
"7$	c #ABACAC",
"  . + + @ # $ % & * = = = - ; > ; , , ' ) - , , ; ; = ! * * * ~ ~ { { ] + ^ / ( _ ",
": < [ } | 1 2 3 4 5 6 7 8 9 0 9 a a a a a a a a a a a a a a a a a 9 b c d e f 9 g ",
"h i j k l m n o p p q r s t t t t t t t t t t t t t t t t t t t t u v w x y z A B ",
"C D E F G H I J J J J K q J J J J L L J J J M N O J P Q | M R J L L J J J J J J K ",
"S T U V W X Y Z `  . . . . . . . ...+.@.@.#.$.%.&.*.=.-.;.>.,.'. . . . . . . . .).",
"!.~.{.].^.^./.(._.:.:.:.:.:.:.:.:.<.[.}.|.1.2.3.4.5.6.7.8.9.0.a.:.b.c.d.e.:.:.:.f.",
"g.h.i.^.^.^./.j.k.:.:.:.:.:.:.:.:.l.m.n.o.p.q.r.s.s.s.s.t.u.v.:.:.:.:.:.:.:.:.:.f.",
"w.x.y.^.^.^.z.A.B.:.:.:.:.:.:.:.C.D.E.F.G.H.s.I.J.K.L.s.s.s.M.N.:.:.:.:.:.:.:.:.f.",
"O.P.Q.R.^.^./.S.T.:.:.:.:.:.:.U.V.s.W.X.Y.Z.s.`. +.+++s.s.s.t.@+:.:.:.:.:.:.:.:.f.",
"#+$+%+&+^.^./.*+=+-+:.:.:.:.:.:.;+s.s.>+,+s.s.'+)+!+~+{+s.s.s.]+:.:.:.:.:.:.:.:.f.",
"w.^+/+(+_+^.z.:+}.,.<+:.:.:.:.[+}+s.s.|+1+s.s.2+3+4+5+6+s.s.s.7+'.:.:.:.:.:.:.:.f.",
"8+9+0+a+b+^./.c+d+e+-+:.:.:.:.f+s.s.s.g+s.s.s.h+i+j+k+l+s.s.s.m+e+:.:.:.:.:.:.:.f.",
"8+n+o+^.^.^.p+q+v.:.:.:.:.:.[+r+s.s.s+t+s.s.s.u+v+w+x+y+s.s.s.z+:.:.:.:.:.:.:.:.f.",
"A+B+%+C+^.^.z.D+E+F+:.:.:.:.G+s.s.s.H+I+s.s.s.J+K+L+M+y+s.s.s.N+:.:.O+:.N.:.:.:.f.",
"O.P+Q+&+^.^./.R+S+:.:.:.:.T+U+s.s.V+W+X+s.s.s.`.Y+Q+~+Z+s.s.s.`+:.e.c. @.@:.:.:.f.",
"+@@@#@^.^.^.$@%@&@<+*@:.:.=@s.s.s.-@;@>@s.s.s.2+,@'@)@!@s.s.L.~@'.{@]@'.v.<+^@:.f.",
"O./@(@_@^.^.p+:@<@:.:.:.[@}@s.s.|@1@2@3@s.s.s.`.4@5@6@s.s.s.7@:.:.:.:.:.:.:.:.:.f.",
"+@8@9@&+^.^./.0@T.[.:.a@b@s.s.c@d@e@f@g@s.s.s.h@i@t.s.s.j@k@_.l@:.:.:.:.:.:.:.:.m@",
"O.n@(+o@^.^./.p@q@:.:.r@s.s.s.s@:.v.t@s.s.s.u@v@w@x@y@y+z@A@B@C@:.:.:.:.:.:.:.:.D@",
"E@F@G@o@^.^.z.H@I@J@K@s.s.s.L@[@M@N@O@s.s.s.P@Q@R@S@T@x+U@V@W@;@:.:.:.:.:.:.:.:.D@",
"E@X@%+/+^.^./.Y@d.Z@s.s.s.s.s.s.s.s.s.s.s.s.s.`@ #.#+#x+U@@###e+:.:.:.:.:.:.:.:.D@",
"$#%#&+R.^.^./.&#S+*#s.s.s.s.s.s.s.s.s.s.s.s.s.=#-#;#T@x+U@>#,#'#:.b.]@)#!#~#:.:.D@",
"$#^.^.^.^.^.$@{#]#^#/#(#d@d@d@d@d@_#:#s.s.s.<#[#x+x+x+x+U@}#|#O+:.e.]@1#[.:.:.:.D@",
"$#^.^.^.^.^.2#3#4#5#:.:.:.:.:.:.:.F.6#s.s.7#8#9#x+x+x+x+U@0#S+a#:.:.:.:.:.:.:.:.D@",
"$#^.^.^.^.^.b#c#E+&@;@:.:.:.:.:.:.d#e#s.s.f#t 9#x+x+x+x+U@g#h#)#&@i#:.:.:.:.:.:.D@",
"$#^.^.^.^.^.2#j#k#l#-+:.:.:.:.m#V.n#s.s.s.o#t 9#x+x+x+x+U@p#q#r#s#t#:.:.:.:.:.:.D@",
"$#^.^.^.^.^.u#v#E+:.:.:.:.:.:.J@s.s.s.s.s.w#t 9#x+x+x+x+U@x#=+;@:.:.:.:.:.:.:.:.D@",
"$#^.^.^.^.^.u#y#z#:.:.:.:.:.:.U.A#B#C#D#E#F#t 9#x+x+x+x+U@x#G#;@:.:.:.:.:.:.:.:.H#",
"I#o+o+o+o+o+J#K#L#M#` N#O#O#O#O#O#P#Q#R#S#T#U#V#W#W#W#W#X#Y#Z#v#`# $.$P#+$` v#@$#$",
"$$%$&$*$=$-$;$>$>$>$>$>$>$>$>$>$>$>$>$>$>$>$>$>$>$>$>$>$>$>$>$>$>$>$>$>$>$>$,$'$)$",
"!$~$~$~$~$~$~$~$~$~$~$~$~$~$~$~$~$~$~$~$~$~$~$~$~$~$~$~$~$~$~$~$~$~$~$~$~$~${$]$^$",
"/$($($($($($($($($($($($($_$:$<$[$}$|$}$}$1$2$3$4$($($($($($($($($($5$:$($($6$7$7$"};
