/* XPM */
static char *_PaneIcon__[] = {
/* columns rows colors chars-per-pixel */
"16 16 149 2",
"   c #3B9C7B76FC1A",
".  c #3D717C36FB91",
"X  c #41FA7FAEFA7A",
"o  c #72AB8C93BE37",
"O  c #7D639406BEBA",
"+  c #74B390BEC4BD",
"@  c #75CD91C2C638",
"#  c #7A1F95C3CAE0",
"$  c #7C349859CD78",
"%  c #7C18989ECE58",
"&  c #433082A2FCF1",
"*  c #48278455F938",
"=  c #460E8128FBCD",
"-  c #4C55846DFB4D",
";  c #48788636FA71",
":  c #4C4688A0F945",
">  c #4E768BACFB58",
",  c #533B8A3BF669",
"<  c #5B5A900CF34F",
"1  c #5D8E8CD0F470",
"2  c #52E98E26F923",
"3  c #5D1395A8F6A1",
"4  c #57A192FEFA6B",
"5  c #72539A31EB94",
"6  c #7B599DD8EB55",
"7  c #64B39A46F38D",
"8  c #610D99D5F8DA",
"9  c #62419B81FA00",
"0  c #74529A8AF2B1",
"q  c #7022A127F079",
"w  c #71FEA384EFF3",
"e  c #7F1BA623EB57",
"r  c #7B29AA31EDEA",
"t  c #6E0FA35CF5C3",
"y  c #7B37AF4EF754",
"u  c #99B09DDDA8F7",
"i  c #9C36A241A4D9",
"p  c #A126A2B9A511",
"a  c #A4BFA909AE18",
"s  c #A5BFAA22B0AE",
"d  c #AAC2AB99AC76",
"f  c #AA6AAE11B595",
"g  c #AAB2AE44BE99",
"h  c #B1E6AAF6BDBF",
"j  c #B03BB393B87E",
"k  c #AA9FB268BD26",
"l  c #B66FB44BB89F",
"z  c #B13DB4EEB77F",
"x  c #B17EB4FBBA17",
"c  c #83919C29C9D1",
"v  c #A309B308DD00",
"b  c #A4C0B405DEBE",
"n  c #B245BC6BDDE8",
"m  c #9080A935E337",
"M  c #8EDCA85BEAC3",
"N  c #993BAE9EEE2D",
"B  c #8590B35AEE1B",
"V  c #90AFB40FE6ED",
"C  c #90F5BAE2EA9C",
"Z  c #942ABFE7EE98",
"A  c #8B5DBAD5F31B",
"S  c #BECFC1D3C1D8",
"D  c #B5D7C311DFA9",
"F  c #B4A4CF7FDAB5",
"G  c #BF04D553DF3F",
"H  c #922EC110F4F2",
"J  c #99A8C5D8F1DC",
"K  c #9BECC8CBF490",
"L  c #9F27CADAF2C9",
"P  c #A63ECE88EE02",
"I  c #B73FC6CFE35C",
"U  c #B5F4C749E722",
"Y  c #B7EBC708E761",
"T  c #B198CF1FE267",
"R  c #BDF6DF28E6EF",
"E  c #B9A0DF7AF0B2",
"W  c #A33ACE0CF216",
"Q  c #A796D22DF357",
"!  c #CDD3C878C530",
"~  c #C126CD1CC6CA",
"^  c #C44DD37EC8BE",
"/  c #C54DD2F4C7CB",
"(  c #C760D7C1CBAB",
")  c #DF39D4F9CF83",
"_  c #C833C767DE63",
"`  c #C282CD79DC93",
"'  c #C19FD910D851",
"]  c #CB88DDD2D32F",
"[  c #CCC8DD59D6F8",
"{  c #CCCCE056D4FA",
"}  c #C24FD280DA0E",
"|  c #CA33DD79DD5C",
" . c #D402D6A4DC2E",
".. c #DA41D641DE2A",
"X. c #E096D833DDC0",
"o. c #E311D867D15F",
"O. c #E40BD8E4D16C",
"+. c #E4B7D919D2DF",
"@. c #E524D9DAD363",
"#. c #E70ADAD6D55A",
"$. c #E4F4E0CCD799",
"%. c #E347E02EDB56",
"&. c #EC2CDCB3DA5E",
"*. c #EC3FDB6EDCC1",
"=. c #F04EDFB6DE32",
"-. c #F107E05EDE04",
";. c #CD9EE1B7D638",
":. c #D0A1E4B2D5F3",
">. c #CE28E44FD8B8",
",. c #CEE4E63CD93B",
"<. c #D148E4A4D55B",
"1. c #D4BCE947D7FF",
"2. c #D131E5D9D97A",
"3. c #D603EBD3DB63",
"4. c #D356ECAADDFA",
"5. c #D494EE22DDFB",
"6. c #D6C7F0D6DF90",
"7. c #EFBBE514E07F",
"8. c #F2ABE163DE83",
"9. c #F62AE23BDD6C",
"0. c #C31AC5EFE443",
"q. c #D1AECDA6E0FE",
"w. c #D427D195E5B4",
"e. c #E520DBF2E335",
"r. c #E606DC45E4CA",
"t. c #EA01DEABE29F",
"y. c #CE42E394E2AB",
"u. c #CA5AE2B5E6D2",
"i. c #CF11ED3FE65A",
"p. c #CBF5EF3BEFC5",
"a. c #CED9F122EEEC",
"s. c #D927F4DEE58D",
"d. c #DB04F6D3E7E0",
"f. c #D1BFF24FEDCE",
"g. c #DB8BF7EDE913",
"h. c #DC6FF851E9C8",
"j. c #DCC1FA96EA69",
"k. c #DE08FA00E8FD",
"l. c #DE74FC7EEB68",
"z. c #DE9FFCD3EC79",
"x. c #DF81FD57EC20",
"c. c #E058FF9EEE86",
"v. c #EF85E52DE123",
"b. c #EFFEE567E0F1",
"n. c #EF50E517E297",
"m. c #F6B1E536E4A9",
"M. c #FFFFE963E93E",
"N. c #FF90EAEBEB12",
"B. c #E35EFFFFEE0D",
/* pixels */
"O + + o @ # # c c % $ % # @ o o ",
"s f d p a j j x x z z z z s i u ",
"l h ! / ;.;.;.^ ~ k g S ( ;.:.] ",
") *.v.3.c.c.a.G T 5 1 e i.z.z.d.",
"O.8.7.<.c.B.H w q m M X P c.c.d.",
"o.*.7.<.j.c.y , * v _ = A z.c.d.",
"o.8.7.2.c.p.4 4 X v q.- A l.c.d.",
"O.8.7.:.l.J ; r X v 0.= Z d.d.d.",
"#.8.v.1.f.8 t C   6 0 < R l.j.d.",
"O.v.v.:.Z & J B . 5 N ` 6.B.c.j.",
"#.=.m.F > & 9 - X n 9.$.6.d.d.l.",
"m.M.7.' K Q W 3 , q.M.%.5.d.j.h.",
"m.N.v.:.h.B.E 2 7 t.M.%.:.j.c.z.",
"m.M.v.,.z.z.L 7 V t.M.%.4.j.c.h.",
"X.e.w.[ >.i.u.G G ..r. .| y.| [ ",
"D D Y Y Y Y Y Y I I Y Y Y Y Y S "
};
