/* XPM */
static const char * unknown[] = {
"23 23 24 1",
". c #808080",
"# c #000000",
"a c #ff0000",
"b c #404000",
"c c #808000",
"d c #ffff00",
"e c #e7e7e7",
"f c #a0a0a0",
"g c #ffc0c0",
"h c #c8c8c8",
"i c #dcdcdc",
"j c #0000ff",
"k c #ffffc0",
"l c #ffc0ff",
"m c #ffa858",
"n c #008000",
"o c #d7d7d7",
"p c #ffdca8",
"q c #c3c3c3",
"r c #ffffff",
"s c #c0ffc0",
"t c #c0c0ff",
"u c #303030",
"v c #585858",
".........uuuuuu........",
".....ubvbqqqfqquu#.....",
"....viqiiqiqqqglmqu....",
"...v.iiiiiqqqmqggiqu...",
"..b.irriiiiqtgqggpi.#..",
".#qrirrriiiqqggppiisi#.",
".viirrrriiiqqgmiisssqqu",
".biiiirrrifffqgisssssqu",
".viiiirirqb#ufmsssoooqu",
"uqiiiiiiqfur##fqsoeeeq#",
"uqiqiiifvvr.r##fqe#nnq#",
"uqiqiiif#r...r#he#danq#",
"uqiqiiifvvr.r##e#daa#q#",
"uqiiiiiiqfur##e#daa#eq#",
"uqiiiiiiqf###e#daa#eoq#",
".biiiirrrifhe#daa#sssqu",
".viirrrriiie#daa#sssqqu",
".#qrirrriii#kaa#piisi#.",
"..virrieeeo#kkcgqisi#..",
"...v.iijjjj###oggiqu...",
"....vihjjjjjooglmqu....",
".....vqeeeeeqqggmu.....",
"......uuuuuuuuuuu......"};
