/* XPM */
static const char * unknown[] = {
"23 23 15 1",
". c #808080",
"# c #000000",
"a c #404000",
"b c #a0a0a0",
"c c #ffc0c0",
"d c #dcdcdc",
"e c #ffc0ff",
"f c #ffa858",
"g c #ffdca8",
"h c #c3c3c3",
"i c #ffffff",
"j c #c0ffc0",
"k c #c0c0ff",
"l c #303030",
"m c #585858",
".........llllll........",
".....lamahhhbhhll#.....",
"....mdhddhdhhhcefhl....",
"...m.dddddhhhfhccdhl...",
"..a.diiddddhkchccgd.#..",
".#hidiiidddhhccggddjd#.",
".mddiiiidddhhcfddjjjhhl",
".addddiiidbbbhcdjjjjjhl",
".mddddidiha#lbfjjjhhhhl",
"lhddddddhbli##bhjhhhhh#",
"lhdhdddbmmi.i##bhhhhhh#",
"lhdhdddb#i...i#bhhhhdh#",
"lhdhdddbmmi.i##bhhhhhh#",
"lhddddddhbli##bhjhhhhh#",
"lhddddddhb###b.jjhjhhh#",
".addddiiidbbbhcdjjjjjhl",
".mddiiiidddhhcfddjjjhhl",
".#hidiiidddhhccggddjd#.",
"..mdiiddddhhhchchdjd#..",
"...m.dddddhhhfhccdhl...",
"....mdhddhdhhhcefhl....",
".....mhkhhhhhhccfl.....",
"......lllllllllll......"};
