/* XPM */
static const char *clear_right[] = {
/* columns rows colors chars-per-pixel */
"16 16 13 1",
"  c black",
". c #181818",
"X c #2D2D2D",
"o c gray25",
"O c #5A5A5A",
"+ c DimGray",
"@ c #888888",
"# c #939393",
"$ c #B7B7B7",
"% c gray74",
"& c gray81",
"* c gray100",
"= c None",
/* pixels */
"================",
"           =====",
"            ====",
"  &%$$%$$%%  ===",
"  @**@#@**@#  ==",
"  O***O***O++  =",
"  oX*****Xoooo  ",
"  .. *** ...... ",
"    *****      *",
"   *** ***    *=",
"   **   **   *==",
"            *===",
"           *====",
" **********=====",
"================",
"================"
};
