/* XPM */
static const char * unknown[] = {
"23 24 13 1",
"  s None c None",
". c #000000",
"# c #646464",
"a c #a0a0a4",
"b c #0000c0",
"c c #0000ff",
"d c #c0c0c0",
"e c #ffffff",
"f c #dddddd",
"g c #969696",
"h c #000080",
"i c #003fa3",
"j c #0000eb",
"h.....................g",
".ccchdddddddddddddhicb.",
".c#cheeeeeeeeeeeeehicb.",
".cccheeeeeeeeeeeeehicb.",
".ccchddddddddddddehicb.",
".cccheeeeeeeeeeeeehicb.",
".cccheeeeeeeeeeeeehicb.",
".ccchddddddddddddehicb.",
".cccheeeeeeeeeeeeehicb.",
".cccheeeeeeeeeeeedcicb.",
".ccchhhhhhhhhhhhhccicb.",
".ccccccccccccccccccicb.",
".ccccccccccccccccccicb.",
".ccccccccccccccccccicb.",
".ccchhhhhhhhhhhhhhhicb.",
".ccchdadddddddhjcchicb.",
".ccchdaaadddadhjcchicb.",
".ccchdaccdadddhjcchicb.",
".ccchdaccdadadhjcchicb.",
".ccchdaccaaaddhjcchicb.",
".ccchdaccaaadahjcchicb.",
"g.iihdffffffffhiiihic..",
" g.bhhaaaaaaaacbbbhi...",
"  g...................g"};
