/* XPM */
static const char * unknown[] = {
"24 24 54 1",
"  s None c None",
". c #dbdbdb",
"# c #000000",
"a c #9f8154",
"b c #949494",
"c c #bcbcbc",
"d c #757575",
"e c #9f8254",
"f c #bfbfbf",
"g c #cfaa69",
"h c #646464",
"i c #4c4226",
"j c #e7e7e7",
"k c #cfad71",
"l c #cba165",
"m c #eeeac6",
"n c #3b352a",
"o c #a3a3a3",
"p c #929292",
"q c #c2ab8a",
"r c #b7b7b7",
"s c #cbcbcb",
"t c #f4e2bc",
"u c #f3f3f3",
"v c #a48757",
"w c #d1d1d1",
"x c #cea668",
"y c #545454",
"z c #a18355",
"A c #797979",
"B c #cdab6f",
"C c #b2b2b2",
"D c #efebc7",
"E c #ede6c5",
"F c #ebebeb",
"G c #d2ac6a",
"H c #a4a4a4",
"I c #6e6e6e",
"J c #251b09",
"K c #b8b8b8",
"L c #6b5736",
"M c #a7a7a7",
"N c #cccccc",
"O c #bbbbbb",
"P c #c89f64",
"Q c #aaaaaa",
"R c #f4d597",
"S c #777777",
"T c #9c9c9c",
"U c #705b39",
"V c #e9e9e9",
"W c #fdfdfd",
"X c #9b7e51",
"Y c #ececec",
"                        ",
"   ###############      ",
"   #W#W#W#W#W#W#W##     ",
"  ##t#R#R#R#R#R#R##     ",
"  #AnAJAJAJIJIJIJd####  ",
"  #.QcQOoOQfoOocMS#mk#  ",
"  #uVVjVVVVVVVjjc#DGz#  ",
"  #WYYYYYVYYYYYY#DGv#   ",
"  #WYYNNNNNNNNO#DgX#    ",
"  #WYYYYYYYYYY#mxe#h    ",
"  #WYYNNNNNNr#mxz##h    ",
"  #WYYYYYYYY#mBz#o#h    ",
"  #WYYNNNNK#Elz#Nr#h    ",
"  #WYYYYYF#EPa#YYT#h    ",
"  #WYYNNsdUqz#OccT#h    ",
"  #WYYYYV#iL#YYYYb#h    ",
"  #WYYHHH##yHCfwsp#h    ",
"  #WYYYYYVVVVVVVjQ#h    ",
"  #WYYYYYYYYYYYYVC#h    ",
"  #uCCCCCCCCCCCCCC#h    ",
"  #################h    ",
"  hhhhhhhhhhhhhhhhhh    ",
"                        ",
"                        "};
