/* XPM */
static const char * gohome_xpm[] = {
"16 16 12 1",
"  s None c None",
". c #ff0000",
"# c #000000",
"a c #ffa858",
"b c #dcdcdc",
"c c #a0a0a0",
"d c #c00000",
"e c #ff8000",
"f c #ffffff",
"g c #800000",
"h c #c05800",
"i c #400000",
"       ##       ",
"  #   #.d#      ",
"  #  #.d.g#     ",
"  # #.diidg#    ",
"  ##.dicbidg#   ",
"  #.dicbfbidg#  ",
" #.dicbfffbidg# ",
"#.dicbfffffbidg#",
"giicbfiiiffbc##g",
"  #cbiaaeifbc#  ",
"  #cbiahhifbc#  ",
"  #cbiahhifbc#  ",
"  #cbiahhifbc#  ",
"  #cbiehhifbc#  ",
"  #cbiehhifbc#  ",
"   ##########   "};

