/* XPM */
static const char * unknown[] = {
"23 23 52 1",
"  s None c None",
". c #e7e7e6",
"# c #dbdbdb",
"a c #808080",
"b c #9591a7",
"c c #b9b9b9",
"d c #cccdcd",
"e c #a8a8a8",
"f c #f8f7f8",
"g c #bebfbf",
"h c #646464",
"i c #bdbbca",
"j c #f8f8f8",
"k c #e6e7e7",
"l c #e7e7e7",
"m c #b5b2c2",
"n c #a39fb2",
"o c #b4b4b4",
"p c #afafae",
"q c #a7a3b9",
"r c #e2e0e7",
"s c #dfdfdf",
"t c #f3f3f3",
"u c #ebeaeb",
"v c #f4f4f3",
"w c #323232",
"x c #d7d7d7",
"y c #c8c6d3",
"z c #e9e8e8",
"A c #f9faf9",
"B c #c7c6c6",
"C c #ffffff",
"D c #e9e9e8",
"E c #f4f3f4",
"F c #dddddd",
"G c #e3e2e3",
"H c #efeeee",
"I c #d8d8d7",
"J c #625b81",
"K c #c7c7c6",
"L c #aaaaaa",
"M c #8d88a2",
"N c #86819d",
"O c #e3e3e3",
"P c #d2d2d2",
"Q c #c1c1c1",
"R c #8b8b8b",
"S c #999a99",
"T c #c2c1c1",
"U c #fafafa",
"V c #eeeeef",
"W c #c7c7c7",
"                       ",
"          CCC          ",
"         CCJCC         ",
"        CCJJJCCC       ",
"       CCCCJCJJC       ",
"    hhhCnqCJCJJChhhh   ",
"   hhCCCiqCJCJCCCDgh   ",
"   heCUUCyrJJCUUAAGhh  ",
"  hhUfttECmJCEEEEvEoh  ",
"  hRUVVVHCCJCUVVVVVxhh ",
" hhjtzDD.CMJNCDDDDzDgh ",
" hRjGGGGGCJJJCGOOOGGdhh",
"hhju##FFFCbJbCFFFFFFFoh",
"hhCCCCCCCCCCCCCCCCCCClw",
"hhsPPPPPPPPPPPPPPPPPPQw",
"hh#dddaDaDaDaDaDaDdddcw",
"hhIKWWakakalalakalBBBow",
"hhPggTgTTgTgTTgTTTWggpw",
"hhoeLLLLLLLLLLLLLLeLLSw",
"hhhhhhhhhhhhhhhhhhhhhhw",
"hhhhhhhhhhhhhhhhhhhhhhw",
"                       ",
"                       "};
