/* XPM */
static const char * unknown[] = {
"22 27 376 2",
"   s None c None",
".. c #000000",
"#. c #3d3d3b",
"a. c #956838",
"b. c #121215",
"c. c #a05f20",
"d. c #434345",
"e. c #160e09",
"f. c #18140f",
"g. c #f2d9ba",
"h. c #e8b584",
"i. c #b07024",
"j. c #c48d53",
"k. c #e5b684",
"l. c #fffcda",
"m. c #603a22",
"n. c #dbd1bc",
"o. c #f3d9ba",
"p. c #ca935d",
"q. c #efcba6",
"r. c #443125",
"s. c #5f6265",
"t. c #ba7632",
"u. c #140e05",
"v. c #c48848",
"w. c #eac6a0",
"x. c #a66a28",
"y. c #080402",
"z. c #c19c6c",
"A. c #daa975",
"B. c #daab7d",
"C. c #815524",
"D. c #f3d8bf",
"E. c #f0cdae",
"F. c #ae7840",
"G. c #cc9354",
"H. c #382217",
"I. c #ecc48f",
"J. c #d0b391",
"K. c #efd4b4",
"L. c #ca9c6b",
"M. c #ebc59c",
"N. c #c68b4b",
"O. c #f5dbc2",
"P. c #744313",
"Q. c #b2a592",
"R. c #b07a3f",
"S. c #8b8b8c",
"T. c #0e0501",
"U. c #18181b",
"V. c #160f09",
"W. c #bdc0c3",
"X. c #f1d7b7",
"Y. c #ebbc81",
"Z. c #ecc59c",
"0. c #eecdaa",
"1. c #6d4418",
"2. c #e8c295",
"3. c #c2843d",
"4. c #83633d",
"5. c #b47024",
"6. c #734a22",
"7. c #f1d5b8",
"8. c #e0b27e",
"9. c #fff0ce",
".# c #020204",
"## c #af6d26",
"a# c #19120c",
"b# c #928b87",
"c# c #efcaa7",
"d# c #f2d6bc",
"e# c #f4dcc2",
"f# c #8b4905",
"g# c #6a6a6e",
"h# c #030100",
"i# c #c38446",
"j# c #1a120c",
"k# c #f5dcc2",
"l# c #e9c99b",
"m# c #e2b27e",
"n# c #c9a985",
"o# c #040100",
"p# c #ffedd4",
"q# c #000001",
"r# c #1e1e21",
"s# c #f5d8bb",
"t# c #c38b4c",
"u# c #472c0d",
"v# c #fcdcb4",
"w# c #20130b",
"x# c #d18e49",
"y# c #160e0a",
"z# c #eab677",
"A# c #f4e4d5",
"B# c #ca9869",
"C# c #383836",
"D# c #eec99f",
"E# c #553112",
"F# c #68686b",
"G# c #fdf1e0",
"H# c #a5a5a6",
"I# c #38230a",
"J# c #f8dec1",
"K# c #282b2c",
"L# c #9a6329",
"M# c #cd9a5f",
"N# c #cb914d",
"O# c #0f0d07",
"P# c #81470c",
"Q# c #b27a44",
"R# c #b4804a",
"S# c #d6ad82",
"T# c #71716f",
"U# c #514e4d",
"V# c #140f0a",
"W# c #eac499",
"X# c #beb7ad",
"Y# c #231816",
"Z# c #5e482f",
"0# c #f0c99f",
"1# c #cc9355",
"2# c #ca8b47",
"3# c #c4b8a3",
"4# c #e3b98d",
"5# c #140c07",
"6# c #653d14",
"7# c #9e682b",
"8# c #251709",
"9# c #1b130c",
".a c #1e1e1d",
"#a c #faead2",
"aa c #6d6d6d",
"ba c #c2af9a",
"ca c #c0a37c",
"da c #7f7f82",
"ea c #b57937",
"fa c #edc9a4",
"ga c #efcda2",
"ha c #2b2924",
"ia c #c6a986",
"ja c #a86619",
"ka c #120d07",
"la c #6f4c27",
"ma c #cf9554",
"na c #e7c097",
"oa c #64431f",
"pa c #c8a280",
"qa c #060200",
"ra c #d9a972",
"sa c #0e0b04",
"ta c #0c0602",
"ua c #673e18",
"va c #e5c6a2",
"wa c #3a2811",
"xa c #525250",
"ya c #daaa76",
"za c #180f0a",
"Aa c #f5e0ca",
"Ba c #f1cea6",
"Ca c #e8ab6b",
"Da c #ca8a3f",
"Ea c #c5bdaa",
"Fa c #865a30",
"Ga c #ffefd4",
"Ha c #221f18",
"Ia c #7c5327",
"Ja c #e6d0ab",
"Ka c #474749",
"La c #1c160b",
"Ma c #1a120d",
"Na c #938674",
"Oa c #f2d0ae",
"Pa c #846e54",
"Qa c #5d5142",
"Ra c #17130d",
"Sa c #676768",
"Ta c #837c76",
"Ua c #bb7e39",
"Va c #210b02",
"Wa c #9d835e",
"Xa c #272a29",
"Ya c #dfa263",
"Za c #f2d9bc",
"0a c #b1b1b2",
"1a c #8d5823",
"2a c #ecc192",
"3a c #503b21",
"4a c #a98b62",
"5a c #40281e",
"6a c #66461e",
"7a c #edd4b6",
"8a c #f7e7d0",
"9a c #daae82",
".b c #efcba8",
"#b c #f3d9bc",
"ab c #f1d2b2",
"bb c #935922",
"cb c #b37834",
"db c #656565",
"eb c #292d35",
"fb c #dbab76",
"gb c #d6b890",
"hb c #f3d5b5",
"ib c #f6dbbb",
"jb c #f6dcbf",
"kb c #f0e4ce",
"lb c #c8c4b9",
"mb c #613b12",
"nb c #bcbcbe",
"ob c #975d20",
"pb c #986127",
"qb c #c99257",
"rb c #efd0af",
"sb c #2c2f34",
"tb c #e0b687",
"ub c #1c130d",
"vb c #f6d6b0",
"wb c #f3ceab",
"xb c #b1752d",
"yb c #100702",
"zb c #120d08",
"Ab c #211614",
"Bb c #ecc29b",
"Cb c #eecaa9",
"Db c #f0d1b3",
"Eb c #c1b8b2",
"Fb c #9a9a9c",
"Gb c #784f33",
"Hb c #120a05",
"Ib c #515052",
"Jb c #a66a26",
"Kb c #080400",
"Lb c #ffe0b8",
"Mb c #a77139",
"Nb c #070305",
"Ob c #f6e3ce",
"Pb c #30353a",
"Qb c #bd7c36",
"Rb c #bababb",
"Sb c #9c9c9b",
"Tb c #dbbc97",
"Ub c #ecc89d",
"Vb c #090400",
"Wb c #ccccd0",
"Xb c #e19f5c",
"Yb c #a5631c",
"Zb c #656056",
"0b c #f4d5b1",
"1b c #1d1d1f",
"2b c #100c09",
"3b c #111010",
"4b c #ac6b25",
"5b c #e6c198",
"6b c #c08138",
"7b c #9b948d",
"8b c #f8d3ad",
"9b c #424244",
".c c #cf8940",
"#c c #e0b787",
"ac c #d7b68d",
"bc c #f7dec3",
"cc c #b6b6b9",
"dc c #110c09",
"ec c #131313",
"fc c #dfc199",
"gc c #94979a",
"hc c #f5e5d2",
"ic c #e2bc92",
"jc c #e2bb8e",
"kc c #814f25",
"lc c #40230b",
"mc c #bb7a33",
"nc c #f0bd87",
"oc c #110802",
"pc c #664e3f",
"qc c #c28138",
"rc c #c28034",
"sc c #5e4a30",
"tc c #595a56",
"uc c #331d02",
"vc c #2e2e2c",
"wc c #040401",
"xc c #e2b57f",
"yc c #fff3e1",
"zc c #514733",
"Ac c #eed3b3",
"Bc c #eccca9",
"Cc c #c1c4c8",
"Dc c #090604",
"Ec c #d9a46d",
"Fc c #cb8e4c",
"Gc c #ab671a",
"Hc c #a8a8ab",
"Ic c #87775a",
"Jc c #feeacf",
"Kc c #cf8b44",
"Lc c #eac29c",
"Mc c #ecc596",
"Nc c #f9e8d5",
"Oc c #3a1600",
"Pc c #e4ba93",
"Qc c #9e9e9f",
"Rc c #442406",
"Sc c #17110b",
"Tc c #978372",
"Uc c #1d0a00",
"Vc c #f7cda3",
"Wc c #6f452c",
"Xc c #edc8a2",
"Yc c #6c5234",
"Zc c #999999",
"0c c #151a22",
"1c c #f2caa5",
"2c c #d2a16b",
"3c c #454543",
"4c c #e0c5a5",
"5c c #191616",
"6c c #18110b",
"7c c #f4ddc0",
"8c c #754d1f",
"9c c #efcaa1",
".d c #2d2e31",
"#d c #4b4b4d",
"ad c #f6d1a6",
"bd c #f5d0ab",
"cd c #d29b5c",
"dd c #707072",
"ed c #e8c099",
"fd c #c48743",
"gd c #777777",
"hd c #19110b",
"id c #f2d1ab",
"jd c #271304",
"kd c #040406",
"ld c #5f5f61",
"md c #dbbb94",
"nd c #bc7a38",
"od c #130a06",
"pd c #848486",
"qd c #251707",
"rd c #bca682",
"sd c #1a110b",
"td c #f6ddc0",
"ud c #fce0be",
"vd c #bf8656",
"wd c #f9d8b9",
"xd c #150d09",
"yd c #ecc69f",
"zd c #c5a069",
"Ad c #79787b",
"Bd c #f3d0b0",
"Cd c #abacae",
"Dd c #e9c69b",
"Ed c #b77c38",
"Fd c #f2d8ba",
"Gd c #c4c4c4",
"Hd c #c2bcb6",
"Id c #e1b990",
"Jd c #110803",
"Kd c #333333",
"Ld c #635c4c",
"Md c #4a3216",
"Nd c #c2a276",
"Od c #6b471f",
"Pd c #c5c5c8",
"Qd c #543310",
"Rd c #aa7638",
"Sd c #0a0a0c",
"Td c #bf935e",
"Ud c #1c170d",
"Vd c #f2d1b0",
"Wd c #6c6c6c",
"Xd c #624732",
"Yd c #765831",
"Zd c #919295",
"0d c #ab7840",
"      b.b.b.b.b.b.b.b.b.b.b.b.b.b.b.b.b.    ",
"    r##dH#H#H#H#H#H#H#H#H#H#H#H#H#H#H#H#Sd  ",
"  1b9bH#sbI#Z#EdTb4cObkbfcgb1au#Ud#.HaH#C#q#",
".#IbH#ebLdTdhb0bG#hcNc8aAc0#BbB#pcY#ecH#3c3c",
".#H#PbZb3#BcgaW#wbd#e#K.jc4#Vd7an#Xd3bH#3c3c",
".#H#Mdz.g.J#BaLc.bO.k#Cbtb5bFdbcDbvdUcH#3c3c",
".#H#oanc2.#bs#0.bdq.2arbD#D.Bdw.M.8.ucH#3c3c",
".#H#8c1#A.XcX.v#paobc.kcYaUbab#cB.CaMbH#3c3c",
".#H#0dqcN.2cMccaNbYd7#mblcfdh.yacd2#bbH#3c3c",
".#H#Gci.eat#M#E#3aNd4.C.jd6#Kci#nd4bf#H#3c3c",
".#H#Ybx.JbUaDaQdIaVcYcOdw#P.##pbL#t.jaH#3c3c",
".#H#mcQb6bN#rcRc5a9a4aWaoca.3.xbcb.c5.H#3c3c",
".#H#x#G.raxck.6.OcuaRd8#QaS#Ecmav.FcP#H#3c3c",
".#H#R.m#Pcna8b9cR#FalaF.acE.Z.fbp.Xb1.H#3c3c",
".#H#Q#Y.ed1cZavbmdTc7bJ.l#o.jbc#icqbwaH#3c3c",
".#H#r.I.wdAa7.IdiaTas.p#idDdibtdLbj.h#H#3c3c",
".#H#AbWcA#GavardlbgcQ.JcOaydfa9.Eadc..H#3c3c",
".#H#K#H.GbJabaHdCdKan.yc7cudz#zd2btaO#H#3c3c",
".#H#.d0cVam.EbW.tcX#l.#aadNa6asaDcMaKbH#3c3c",
".#H#.avcXab#CcQczcPaL.IcscqdRazbj#sd..H#3c3c",
".#H#KdaaZdWbcchao#y.Lau.wcSc6csdhd9#qaH#3c3c",
".#H#AddaHcPdg#f.sdhda#hdhda#sdhdhdubV#H#3c3c",
".#H#dbd.Sb0aU#kaj#j#hdj#j#j#hdj#j#e...H#3c3c",
".#H#T#FbpdF#5cT.zaV.JdHby#odybxd5#VbAdH#3c3c",
".#H#xagdSaAdAdAdAdAdAdAdAdAdAdAdAdAdAdnbS.ld",
".#WdGdGdGdGdGdGdGdGdGdGdGdGdGdGdGdGdGdRbZcdd",
"WdU..#.#.#.#.#.#.#.#.#.#.#.#.#.#.#.#.#.#.#kd"};
