/* XPM */
static const char *kedit[] = {
/* columns rows colors chars-per-pixel */
"24 24 155 2",
"   c #000000",
".  c #000709",
"X  c #000A00",
"o  c #000909",
"O  c #0B0602",
"+  c #0B0B0B",
"@  c #001200",
"#  c #001C00",
"$  c #001F0F",
"%  c #021616",
"&  c #011B1B",
"*  c #171800",
"=  c #1E1E00",
"-  c #1A1A26",
";  c #012301",
":  c #00210E",
">  c #022B02",
",  c #082507",
"<  c #002F10",
"1  c #09221A",
"2  c #023302",
"3  c #003B00",
"4  c #152100",
"5  c #1F2000",
"6  c #1B2C1C",
"7  c #143800",
"8  c #173E09",
"9  c #163D16",
"0  c #1B351B",
"q  c #0C3434",
"w  c #153636",
"e  c #123B3B",
"r  c #251000",
"t  c #2D3409",
"y  c #2B342B",
"u  c #2F3F2F",
"i  c #393B3B",
"p  c #004000",
"a  c #004A00",
"s  c #025C01",
"d  c #0E5C02",
"f  c #0B5017",
"g  c #144314",
"h  c #1E4314",
"j  c #145109",
"k  c #175E00",
"l  c #1F5C00",
"z  c #165516",
"x  c #1E5F1E",
"c  c #006200",
"v  c #006C00",
"b  c #0B6100",
"n  c #007300",
"m  c #007E00",
"M  c #116100",
"N  c #186018",
"B  c #235C00",
"V  c #314A04",
"C  c #3C4500",
"Z  c #205720",
"A  c #304030",
"S  c #2E6E2E",
"D  c #324F4F",
"F  c #3B5252",
"G  c #4A2600",
"H  c #4B4C3D",
"J  c #5F5F3F",
"K  c #7F5F2F",
"L  c #745A39",
"P  c #464646",
"I  c #494A49",
"U  c #445744",
"Y  c #495949",
"T  c #595B44",
"R  c #505A50",
"E  c #5D5854",
"W  c #436E42",
"Q  c #477647",
"!  c #4B714B",
"~  c #5D6565",
"^  c #606050",
"/  c #646564",
"(  c #666969",
")  c #6C6B6B",
"_  c #6F7970",
"`  c #706F70",
"'  c #737272",
"]  c #77787D",
"[  c #7B7B7B",
"{  c #0000BF",
"}  c #29298D",
"|  c #33338F",
" . c #303090",
".. c #3B3A94",
"X. c #1C1CFF",
"o. c #2020C5",
"O. c #464695",
"+. c #5555B6",
"@. c #7C7CA9",
"#. c #7F7FBF",
"$. c #4242F9",
"%. c #4C4CF4",
"&. c #008100",
"*. c #009300",
"=. c #009B00",
"-. c #00A400",
";. c #738473",
":. c #7D867D",
">. c #7F8080",
",. c #90673B",
"<. c #A36E00",
"1. c #A77000",
"2. c #A1780D",
"3. c #836845",
"4. c #966F43",
"5. c #817FA3",
"6. c #FA9117",
"7. c #FB931B",
"8. c #FFC976",
"9. c #FDCC79",
"0. c #838383",
"q. c #868E86",
"w. c #8A8A8A",
"e. c #959395",
"r. c #999699",
"t. c #9B9A9B",
"y. c #8282A9",
"u. c #8A8AAE",
"i. c #A6A6A6",
"p. c #A1A1AB",
"a. c #AAA9AA",
"s. c #A5A5B4",
"d. c #AEAEBD",
"f. c #B7B7B7",
"g. c #B5B5BC",
"h. c #BFBFBF",
"j. c #8D8DE0",
"k. c #ACACD9",
"l. c #B0B0C1",
"z. c #BDBEC0",
"x. c #ACACFF",
"c. c #C0BFC0",
"v. c #FFE299",
"b. c #EFE8AA",
"n. c #C4C4C3",
"m. c #CACACA",
"M. c #D2D2D2",
"N. c #DBDBDB",
"B. c #E4E4E4",
"V. c #E9E9E6",
"C. c #ECECED",
"Z. c #F6F6F6",
"A. c #F8F8F7",
"S. c #FEFEFE",
"D. c None",
/* pixels */
"D.D.D.D.D.D.D.D.D.D.D.    @ >     D.D.D.D.D.D.D.",
"D.D.D.D.D.D.D.D.  D.  X a n *.@   D.D.D.D.D.D.D.",
"D.D.D.D.D.D.D.      3 c =.-.p   D.D.D.D.D.D.D.D.",
"D.D.D.D.D.    @ > v *.*.=.&.;   D.D.D.D.        ",
"D.D.D.D.D.  3 s &.&.&.&.=.3   D.D.D.D.D.  L ,.r ",
"D.D.D.D.  a &.m &.&.&.&.m @   D.D.D.  O 4.9.6.G ",
"D.D.D.  o d n v &.m &.&.c   D.D.D.  O 4.9.6.<.= ",
"D.D.D.  < j n v &.&.&.n X   D.D.D.O 4.8.7.<.=   ",
"D.D.  o g d s n c n &.3   D.D.  O 4.9.7.<.=   D.",
"D.D.  : c B B b c c c @   D.  O 4.9.6.<.=   D.D.",
"D.  . h M k d M s 3 u / P   O 4.8.7.<.=   D.D.D.",
"D.  1 V B k 3 2 0 ] a.V.B.E ,.9.7.1.5   D.D.D.D.",
"  o t C 7 < y ' #...l.A.h.3.v.7.<.*   D.D.D.D.D.",
"  $ 8 4 u ) f.h.....>.x.+.E b.2.J 0.P     D.D.D.",
"X , 6 >.a.n.z.@.} #.o.X.{ - H T N.S.B.i.i +     ",
"  I r.n.n.z.l.+.>.k.$.x.%.j.V.C.S.S.S.Z.m.)     ",
"+ I ' w.i.n.u. .d.A.S.S.C.M.Z.S.S.S.M.t.e.(     ",
"+ i ~ ` ' [ p.s.B.S.S.S.C.h.M.Z.N.r.0.r.:.Y     ",
"  % q F ~ ' ) w.m.Z.S.S.C.n.a.r.[ e.q.! N p     ",
"D.    & w D ( ) 0.e.n.Z.m.w.] ) [ Q x 3 @       ",
"D.D.    o % e F _ e.w.w.[ ` / Y g , #     D.D.D.",
"D.D.D.D.      & f Q ;.t.0.U 9 ;         D.D.D.D.",
"D.D.D.D.D.  D.    3 z S Z ; X       D.D.D.D.D.D.",
"D.D.D.D.D.D.D.D.    @ ; #     D.D.D.D.D.D.D.D.D."
};
