/* XPM */
static const char *kwrite[] = {
/* columns rows colors chars-per-pixel */
"24 24 247 2",
"   c #0F0B05",
".  c #0D0F13",
"X  c #16100B",
"o  c #19140F",
"O  c #1C1B1C",
"+  c #000C2D",
"@  c #000932",
"#  c #000F3D",
"$  c #01103E",
"%  c #1E1F20",
"&  c #101933",
"*  c #1F2021",
"=  c #222121",
"-  c #3D3220",
";  c #00165E",
":  c #1F2944",
">  c #162970",
",  c #384147",
"<  c #554A0B",
"1  c #5A4F18",
"2  c #494931",
"3  c #545333",
"4  c #5E5634",
"5  c #65570F",
"6  c #60571F",
"7  c #695D15",
"8  c #7F4912",
"9  c #7E4A1A",
"0  c #625D34",
"q  c #625C38",
"w  c #71610F",
"e  c #736411",
"r  c #706B32",
"t  c #706B39",
"y  c #7B763E",
"u  c #444349",
"i  c #434D6B",
"p  c #52647C",
"a  c #645F45",
"s  c #74705E",
"d  c #7F7B6B",
"f  c gray50",
"g  c #0A2690",
"h  c #123297",
"j  c #1B3A9E",
"k  c #0B33AC",
"l  c #0F38B0",
"z  c #1136A4",
"x  c #1438AA",
"c  c #1C3DA1",
"v  c #153DB1",
"b  c #183EB4",
"n  c #1F40A4",
"m  c #1E41B4",
"M  c #2F4A93",
"N  c #374F89",
"B  c #314B94",
"V  c #3F5694",
"C  c #2040A6",
"Z  c #2D4DAE",
"A  c #2244B6",
"S  c #2046B8",
"D  c #284CB8",
"F  c #3451A5",
"G  c #3654AE",
"H  c #3353BC",
"J  c #3E5BB5",
"K  c #2E54CD",
"L  c #3559CF",
"P  c #3C5DC0",
"I  c #3B5CCB",
"U  c #3E62DE",
"Y  c #405AA4",
"T  c #435FBA",
"R  c #4B639A",
"E  c #586B8D",
"W  c #4464BF",
"Q  c #5A6EA0",
"!  c #5F77B4",
"~  c #717B97",
"^  c #7E7F99",
"/  c #6275BE",
"(  c #6B79BC",
")  c #4364C1",
"_  c #4967CA",
"`  c #4D6ACA",
"'  c #4065D3",
"]  c #4569D2",
"[  c #4A6DD3",
"{  c #4E71DB",
"}  c #546FC9",
"|  c #5370CF",
" . c #5F76C6",
".. c #5872CC",
"X. c #5C78C1",
"o. c #5E78CD",
"O. c #5273D3",
"+. c #5374DB",
"@. c #5E7AD3",
"#. c #5C7ADD",
"$. c #5A7CE3",
"%. c #627BC1",
"&. c #7A8474",
"*. c #74838F",
"=. c #7C8884",
"-. c #7988A1",
";. c #7C8ABD",
":. c #5F81E5",
">. c #6E80C8",
",. c #6583D8",
"<. c #6689DA",
"1. c #7089CE",
"2. c #7B8CC4",
"3. c #7989CD",
"4. c #728ADA",
"5. c #7C96DA",
"6. c #6382E3",
"7. c #6A86E4",
"8. c #6E88E3",
"9. c #6B89E8",
"0. c #728BE4",
"q. c #7593EB",
"w. c #7B93E2",
"e. c #7896EB",
"r. c #7D99F0",
"t. c #804B13",
"y. c #81501B",
"u. c #9A6F55",
"i. c #947B45",
"p. c #9E7E4A",
"a. c #937D55",
"s. c #807C6C",
"d. c #807E73",
"f. c #86803D",
"g. c #8A8232",
"h. c #918937",
"j. c #8C935A",
"k. c #9B855A",
"l. c #8B9277",
"z. c #8C9478",
"x. c #AF9679",
"c. c #BE9D70",
"v. c #D2A92B",
"b. c #FB9D1C",
"n. c #EC8928",
"m. c #F18B26",
"M. c #FDB505",
"N. c #FBB609",
"B. c #FEAE32",
"V. c #CFA055",
"C. c #CCAB5E",
"Z. c #F4AD42",
"A. c #FFC404",
"S. c #FFDF15",
"D. c #E2D725",
"F. c #FFCA23",
"G. c #F1CF3B",
"H. c #FFE10E",
"J. c #F3E718",
"K. c #FFE014",
"L. c #FFED1B",
"P. c #FFF11B",
"I. c #F4EA25",
"U. c #FFED23",
"Y. c #FFE539",
"T. c #E5C46E",
"R. c #F7E450",
"E. c #88898A",
"W. c #95948D",
"Q. c #949495",
"!. c #8687A0",
"~. c #8797AB",
"^. c #8D97B4",
"/. c #8D9EB9",
"(. c #909DAB",
"). c #949EBC",
"_. c #98A18E",
"`. c #97A0BD",
"'. c #A6AD9A",
"]. c #ACABA5",
"[. c #B9B8B4",
"{. c #BEBEBD",
"}. c #8296D3",
"|. c #8799D6",
" X c #849BDC",
".X c #8A9EDA",
"XX c #869BE1",
"oX c #839AE8",
"OX c #8B9EE7",
"+X c #8FA2D9",
"@X c #99AADB",
"#X c #85A8E7",
"$X c #8FA3E2",
"%X c #8FA3ED",
"&X c #94A5E3",
"*X c #93A5EA",
"=X c #95A8EB",
"-X c #9DADE4",
";X c #9CB1EB",
":X c #A0ADC5",
">X c #A7B3C2",
",X c #A1B1DC",
"<X c #A2B2ED",
"1X c #ADBBEF",
"2X c #AEBCF1",
"3X c #B1BFF0",
"4X c #ABC5EA",
"5X c #A5C9F8",
"6X c #AFCEF7",
"7X c #B6C2EF",
"8X c #BEC9E8",
"9X c #B3C0F0",
"0X c #B7CDFC",
"qX c #BBC7F2",
"wX c #BDC9F2",
"eX c #BCD5FD",
"rX c #BEDDFE",
"tX c #E9E995",
"yX c #FFF796",
"uX c #FFF7A1",
"iX c #FFFBA5",
"pX c #C0C0C0",
"aX c #C9C5C0",
"sX c #D5CEC4",
"dX c #D0CFCE",
"fX c #DAD5CA",
"gX c #D5D4D4",
"hX c #C1CCF3",
"jX c #CDD7E4",
"kX c #CED6EE",
"lX c #C3DBFE",
"zX c #CCD5F5",
"xX c #D1D9F5",
"cX c #D8DEF7",
"vX c #D5E2F6",
"bX c #D7E4FB",
"nX c #DDE2F2",
"mX c #DBE1F9",
"MX c #DDE9FF",
"NX c #E9EAEA",
"BX c #E5EAF6",
"VX c #E5ECFC",
"CX c #EAF5FF",
"ZX c #F2F2F3",
"AX c #F5FAFB",
"SX c #FEFEFE",
"DX c None",
/* pixels */
"DXDXDXDXDXDXDXDXDXDXDXDXDXDXDXDXDXDXyXG.p.sXDXDX",
"DXDXDXDXDXDXDXDX,X,XDXDXDXDXDXDXDXuXU.Y.C.a.fXDX",
"DXDXDXkX_ 8XDX@Xk z `.DXDXDXDXDXyXU.L.K.v.i.k.aX",
"DXDXDX+Xm J }.v O.6.n `.DXDXDXyXU.L.S.A.N.Z.V.- ",
"DXDXBXD -X-Xm O.bXVXe.c ~ DXiXU.L.S.A.N.b.m.y.  ",
"DXDX1.` cXVX$X5.BXSXVXq.g , D.P.K.A.M.b.m.8 X E.",
"DXnXP &XxXzXmX-X+XVXCXMX5.j.J.K.A.M.b.m.8 X Q.DX",
"DXW _ 7XwXzXxXzX$X5.vXAXtXI.K.A.N.b.m.t.X Q.DXDX",
"<Xb 5.1XwXhXhXhXwX X XjXR.H.A.N.b.m.8 X Q.DXDXDX",
"v I OX2X3X3X3X2X3X3Xw.;.T.F.M.b.n.9 o Q.DXDXDXDX",
"k ( >X|.OX=X=X<X<X<X<X3.!.T.B.m.u.> i DXDXDXDXDX",
", l.^ Y @.9.0.w.oX=X&X2.( ^ c.x.:X7.n `.DXDXDXDX",
"< f.M J 2.4.0.7.8.w.4./ %.} X.4XrXlX8.j ^.DXDXDX",
"s 5 3 =.W.Q } 9.0.7.8.0.0.q.#.<.6XrXeX9.h : DXDX",
"DX{.q h.N Z %.0.7.8.8.6.8.8.6.{ <.5XrX0XU ; f DX",
"DXDXd w q E '.-...8.6.8.6.6.6.#.U #XlXe.m @ f DX",
"DXDXDXW.a g.p F W <.8.8.6.6.6.$.[ ;Xe.m ; = DXDX",
"DXDXDXDXW.e t V ~.(.%.$.7.6.$.{ ,.q.A # o DXDXDX",
"DXDXDXDXDXd.4 r &.R G #.6.$.6.] $.m # = DXDXDXDX",
"DXDXDXDXDXDXDX7 y B / /.@.6.$.K b # O DXDXDXDXDX",
"DXDXDXDXDXDXDXd 1 3 z.*.F O.I x $ O DXDXDXDXDXDX",
"DXDXDXDXDXDXDXDXDX6 f.B H I z @ = DXDXDXDXDXDXDX",
"DXDXDXDXDXDXDXDXDXs.5 2 j c ; O DXDXDXDXDXDXDXDX",
"DXDXDXDXDXDXDXDXDXDX[.].& + . DXDXDXDXDXDXDXDXDX"
};
