/* XPM */
static const char * unknown[] = {
"7 22 4 1",
"  s None c None",
". c #0000cc",
"# c #0098b1",
"a c #000080",
"       ",
"       ",
"       ",
"       ",
"       ",
"       ",
"       ",
"       ",
"       ",
"       ",
"       ",
"       ",
"       ",
"       ",
"a#   #a",
"a.   .a",
".a. .a.",
"#a.#.a#",
" #a.a# ",
"  a.a  ",
"  #a#  ",
"   #   "};
