/* XPM */
static const char * unknown[] = {
"16 16 8 1",
"  s None c None",
". c #000000",
"# c #808080",
"a c #bababa",
"b c #373737",
"c c #ffffff",
"d c #545454",
"e c #969696",
"     bbbbbbb    ",
"   bb#b#b#bab   ",
" .......babadb  ",
" .cccccc.adbaab ",
" .c####cd.aabcb ",
" .cccccccc.cbcb ",
" .c######c.cbcb ",
" .cccccccc.cbcb ",
" .c######c.cbcb ",
" .cccccccc.cbcb ",
" .c######c.cbcb ",
" .cccccccc.cbcb ",
" .c######c.cbbb ",
" .cccccccc.bbee ",
" ..........ee   ",
"  #########     "};
