/* XPM */
static const char * unknown[] = {
"5 14 4 1",
"  s None c None",
". c #1a1a1a",
"# c #4f9668",
"a c #c0e4cb",
"     ",
"     ",
"     ",
"     ",
"     ",
"a   a",
"#a a#",
".#a#.",
"#.#.#",
" .#. ",
" #.# ",
"  .  ",
"     ",
"     "};
