/* XPM */
static const char * unknown[] = {
"23 23 34 1",
"  s None c None",
". c #000000",
"# c #808080",
"a c #404000",
"b c #78a6ff",
"c c #646464",
"d c #8c8c8c",
"e c #a0a0a0",
"f c #ffc0c0",
"g c #0000c0",
"h c #c8c8c8",
"i c #dcdcdc",
"j c #ffa858",
"k c #0000ff",
"l c #a5b4a5",
"m c #434343",
"n c #c0c0c0",
"o c #ffdca8",
"p c #c3c3c3",
"q c #323232",
"r c #dadada",
"s c #a5c0a5",
"t c #ffffff",
"u c #a7a7a7",
"v c #c0ffc0",
"w c #969696",
"x c #c1c1c1",
"y c #d2d2d2",
"z c #000080",
"A c #333333",
"B c #303030",
"C c #a5d7a5",
"D c #585858",
"E c #003fa3",
"###############AAAAAAw ",
"#####BaD#qqqq#nnnzEkgA ",
"####Dip..qqqqq#wtzEkgA ",
"###D#i.qqqccmqqqtzEkgA ",
"##a#i.qqqcwcqqq.hzEkgA ",
"#Apti.qqcwitq.q.hzEkgA ",
"#Diit.qqciitq.q.hzEkgA ",
"#aiffp..cien..q.hzEkgA ",
"#Dipfptitpac.qqqtzEkgA ",
"Bpioofiipew.qq.wnkEkgA ",
"BpviijieDw.qq.wCsCsClz ",
"ucccccccbcqq.wCsCsCslz ",
"cuuuuuuuu.qq.ChCsChClz ",
"currrrrrr.qq.smslsmClz ",
"currrrrrr.qq.CmmwmmClz ",
"curqqqqqqc..csmCmCmClz ",
"currrrrrrrrCCCmCCCmClz ",
"curyyddddyyCCsmCsCmClz ",
"curcccccc....CsCsCsClz ",
"currrrrrr.qq.sCsCsCslz ",
"cuxxxxxxx....llllllllc ",
"ucccccccccczzzzzzzzzc  ",
"                       "};
