/* XPM */
static const char * unknown[] = {
"24 24 9 1",
"  s None c None",
". c #000000",
"# c #646464",
"a c #c8c8c8",
"b c #a5b4a5",
"c c #a5c0a5",
"d c #969696",
"e c #a5d7a5",
"f c #000080",
"a#ffffffffffffffffffff# ",
"#eeeeeeeeeeeeeeeeeeeecb#",
"feee.acea.cecece....eebf",
"feec.aeca.ececec.aea.ebf",
"feee.acea.eeceee.aca.ebf",
"feec.aeca.eb..be....eebf",
"feee.acea.e.aa.e.aea.ebf",
"feec.aeca.e.acee.aca.ebf",
"feced.aa.de.aece.aea.ebf",
"feeced..dceb..ee....cebf",
"fecececececeba.ecececebf",
"feececececedea.cecececbf",
"fececececee.aa.ecececebf",
"feececececeb..beecececbf",
"fececeaeceaebbceaeceaebf",
"feecec.ebe.ceeec.cbc.ebf",
"fecece..d..e...e..d..ebf",
"feecec.e.e.c.eec.e.e.ebf",
"#bbece.eee.e..de.eee.ebf",
" fbbec.ece.c.eec.ece.ebf",
"  fbbececece...ecececebf",
"   fbbecececeeececececbf",
"    fbbbbbbbbbbbbbbbbbb#",
"     #ffffffffffffffff# "};
