/* XPM */
static const char * unknown[] = {
"23 23 17 1",
"  s None c None",
". c #b9b9b9",
"# c #78a6ff",
"a c #646464",
"b c #8c8c8c",
"c c #b4b4b4",
"d c #78a6bd",
"e c #c8c8c8",
"f c #5c7ebd",
"g c #323232",
"h c #ffffff",
"i c #dadada",
"j c #a4dcff",
"k c #a7a7a7",
"l c #d2d2d2",
"m c #c1c1c1",
"n c #b3b3b3",
"                       ",
"          jjj          ",
"          jfj          ",
"         j#f#jh        ",
"        h#fff#hjj      ",
"       hhhjfhhh#j      ",
"      j#jhjfhjj#j      ",
"      j#jhjf####       ",
"    niii#jjfjjiiiin    ",
"  nnieeee#dfjiiiiiinn  ",
" niiiiiiiijdfjiiiiiiin ",
"kaaaaaaaa#djd#aaaaaaaak",
"akkkkkkkkk#d#kkkkkkkkka",
"akiiiiiiiii#iiiiiiiiima",
"akiiiiiiiiiiiiiiiiiiima",
"akigggggggggggiiiiiilma",
"akiiiiiiiiiiiiiiaaaai.a",
"akillbbbbbllliiiiiiiica",
"akiaaaaaaaalilgggggglma",
"akiiiiiiiiiiiiiiiiiiima",
"akmmmmmmmmmmmmmmmmmmmma",
"kaaaaaaaaaaaaaaaaaaaaak",
"                       "};
