/* XPM */
static const char * unknown[] = {
"24 24 15 1",
"  s None c None",
". c #000000",
"# c #d0d0d0",
"a c #646464",
"b c #c8c8c8",
"c c #568a56",
"d c #f0f0f0",
"e c #8a8a8a",
"f c #a5c0a5",
"g c #ffffff",
"h c #dddddd",
"i c #e0e0e0",
"j c #969696",
"k c #000080",
"l c #a5d7a5",
"         ekkkkkkkkkkkkkj",
"        elflflflflflflfk",
"        elllllllllllllfk",
"        ell.blb.lffffffk",
"        ell.blb.llllllfk",
"        all.blb.lffffffk",
"        all.blb.llllllfk",
" aaaaaaaallb...blffffffk",
"edgdgdgdellllbllllllllfk",
"ehhhehhhelffflb..llffffk",
"ehhhehhhelllll.clcllllfk",
"ehhhhhhhelfffll.cllffffk",
"ehhhhhhhelllllciccllllfk",
"ehhhehhhelfffbc..blffffk",
"ehhhehhhelllllllllllllfk",
"e#######elffffffl.llfffk",
" aaaaaaaellllllll.llllfk",
"        elffffffl...blfk",
"        ellllllll.ll.lfk",
"        elffffffl.ll.lfk",
"        ellllllll...blfk",
"        elfffffffffffffk",
"        effffffffffffffk",
"         ekkkkkkkkkkkkkj"};
